<svg xmlns="http://www.w3.org/2000/svg" xmlns:xlink="http://www.w3.org/1999/xlink" viewBox="0 0 305.46 305.46">
  <defs>
    <clipPath id="clip-path">
      <circle cx="152.73" cy="152.73" r="142.53" style="fill: none"/>
    </clipPath>
  </defs>
  <title>Artboard 8</title>
  <g style="isolation: isolate">
    <g id="Capa_1" data-name="Capa 1">
      <g>
        <circle cx="152.73" cy="152.73" r="152.73" style="fill: #fff"/>
        <g style="clip-path: url(#clip-path)">
          <g>
            <g>
              <g>
                <g>
                  <rect x="58.69" y="140.93" width="44.79" height="68.65" style="fill: #efbc9d"/>
                  <rect x="58.69" y="177.94" width="44.79" height="52.58" rx="21.84" ry="21.84" style="fill: #efbc9d"/>
                </g>
                <path d="M94,324.49a7.79,7.79,0,0,1-7.79-7.79l-3.56-99.89c0-4.31,7-8,11.35-8s9.42-5.11,9.42-.81L101.79,316.7A7.79,7.79,0,0,1,94,324.49Z" style="fill: #efbc9d"/>
                <path d="M68.18,324.49a7.79,7.79,0,0,1-7.79-7.79L58.63,207.88c0-4.3,5.25,1,9.55,1S79.4,212.67,79.4,217L76,316.7A7.79,7.79,0,0,1,68.18,324.49Z" style="fill: #efbc9d"/>
                <g>
                  <path d="M116.81,239.28h-.1a5.84,5.84,0,0,1-5.75-5.93c0-.54.78-54.23-3.29-74.21-2.44-12-17.93-13-18.59-13a5.84,5.84,0,0,1,.57-11.67c1,.05,25.2,1.43,29.47,22.36,4.33,21.21,3.56,74.46,3.53,76.72A5.84,5.84,0,0,1,116.81,239.28Z" style="fill: #a98870"/>
                  <path d="M45.38,239.28a5.83,5.83,0,0,1-5.84-5.75c0-2.26-.8-55.51,3.52-76.72,4.27-20.93,28.44-22.31,29.47-22.36a5.84,5.84,0,0,1,.57,11.67c-.73,0-16.15,1.06-18.59,13-4.07,20-3.3,73.67-3.29,74.21a5.83,5.83,0,0,1-5.75,5.93Z" style="fill: #a98870"/>
                </g>
                <path d="M108.64,169.91h12.71A125.33,125.33,0,0,0,119.6,157c-4.34-21.28-28.88-22.7-29.92-22.75-1.45-.07-4.57-.11-8.35-.11s-7.27,0-8.82.11c-1,.05-25.59,1.47-29.93,22.75a128.17,128.17,0,0,0-1.75,12.87H53.54c.4-4,.87-7.51,1.45-10.34a12.94,12.94,0,0,1,3.22-6.3V210.4H104V153.27a12.92,12.92,0,0,1,3.21,6.3A104.29,104.29,0,0,1,108.64,169.91Z" style="fill: #78d0f5"/>
                <path d="M81.09,147.75h0a10.86,10.86,0,0,1-10.83-10.83V122.07a10.87,10.87,0,0,1,10.83-10.84h0a10.87,10.87,0,0,1,10.83,10.84v14.85A10.86,10.86,0,0,1,81.09,147.75Z" style="fill: #9c7456"/>
                <g>
                  <path d="M126.54,91.92a8.44,8.44,0,1,1-8.44-8.44A8.44,8.44,0,0,1,126.54,91.92Z" style="fill: #edb28c"/>
                  <path d="M52.52,91.92a8.44,8.44,0,1,1-8.43-8.44A8.43,8.43,0,0,1,52.52,91.92Z" style="fill: #edb28c"/>
                </g>
                <path d="M81.09,128.92h0A37,37,0,0,1,44.19,92V73.31c0-20.29,16.61-29.1,36.9-29.1h0c20.3,0,36.9,8.81,36.9,29.1V92A37,37,0,0,1,81.09,128.92Z" style="fill: #a98870"/>
              </g>
              <g>
                <path d="M126.54,91.92a8.44,8.44,0,1,1-8.44-8.44A8.44,8.44,0,0,1,126.54,91.92Z" style="fill: #a98870"/>
                <path d="M52.52,91.92a8.44,8.44,0,1,1-8.43-8.44A8.43,8.43,0,0,1,52.52,91.92Z" style="fill: #a98870"/>
              </g>
              <path d="M76.53,317.5,79.41,231c.37,0,.75,0,1.13,0h1.1c.35,0,.69,0,1,0l3,86.6,16.73-5.76,1.48-101c0-.42,0-.86.06-1.3H58.17l1.61,102.24Z" style="fill: #4a2f16"/>
              <g>
                <path d="M44.11,91s4.06-5.2,6.82-15.75-1-22.72-1-22.72-4.06.9-6.33,11C39.73,81,44.11,91,44.11,91Z" style="fill: #624730"/>
                <path d="M118,91s-4.05-5.2-6.81-15.75,1-22.72,1-22.72,4.06.9,6.33,11C122.39,81,118,91,118,91Z" style="fill: #624730"/>
                <path d="M112.93,54.35S99.46,68,75.44,67s-30-13.15-31.17-18.34.49-11.36.49-11.36S50,44.77,72,41.53s29.37-1.79,35.38,1.94S112.93,54.35,112.93,54.35Z" style="fill: #624730"/>
              </g>
            </g>
            <g>
              <g>
                <path d="M65,107.32c2.29,4.91,8.06,8.4,14.8,8.4s12.52-3.49,14.81-8.4Z" style="fill: #fff"/>
                <g>
                  <path d="M61.45,97.42h0A4.49,4.49,0,0,1,57,92.94V89.68a4.49,4.49,0,0,1,4.48-4.48h0a4.49,4.49,0,0,1,4.48,4.48v3.26A4.49,4.49,0,0,1,61.45,97.42Z" style="fill: #645448"/>
                  <path d="M61.74,89.18a1.52,1.52,0,1,1-1.52-1.52A1.52,1.52,0,0,1,61.74,89.18Z" style="fill: #fff"/>
                </g>
                <g>
                  <path d="M98.72,97.42h0a4.49,4.49,0,0,1-4.49-4.48V89.68a4.49,4.49,0,0,1,4.49-4.48h0a4.49,4.49,0,0,1,4.48,4.48v3.26A4.49,4.49,0,0,1,98.72,97.42Z" style="fill: #645448"/>
                  <path d="M99,89.18a1.52,1.52,0,1,1-1.51-1.52A1.52,1.52,0,0,1,99,89.18Z" style="fill: #fff"/>
                </g>
              </g>
              <rect x="55.63" y="79.45" width="11.64" height="3.26" style="fill: #4a2f16"/>
              <rect x="92.89" y="79.45" width="11.64" height="3.26" style="fill: #4a2f16"/>
            </g>
          </g>
          <g>
            <g>
              <path d="M269.29,80.2c-13.6-19.56-35.45-17.78-36.35-17.78S210.19,60.64,196.6,80.2c-13.88,20-8.61,94-6.18,104.93,9.57,0,75.48,0,85,0C277.9,174.17,283.17,100.16,269.29,80.2Z" style="fill: #231f20"/>
              <path d="M209.61,159.66s10.27-2.82,15.27-3,16.83.5,16.83.5,11.13,1.06,14.73,2.28l-2.23,6.72-35.16,9.17-13.5-6.83Z" style="fill: #d09370"/>
              <path d="M247.47,199.81c0-13.87,7.79-36.27,7.79-36.27H210.55s7.79,22.4,7.79,36.27c0,7.69-4.65,18.95-6.3,26.32-.79,3.54-1,9.83.76,13.75,3.61,7.89,10.6,13.25,19.59,13.25h1c9,0,16-5.36,19.59-13.25,1.8-3.92,1.55-10.21.76-13.75C252.12,218.76,247.47,207.5,247.47,199.81Z" style="fill: #d09370"/>
              <path d="M201.12,244.17c-3.16,0-5.77-2.1-5.83-4.74,0-1.53-.76-11.64,1.42-32,.17-1.54,5.39-17.2,5.75-22,.64-8.47-2-13-1.5-15,3.38-13.75,15.74-12.73,23.12-13.35,3.21-.25,6.07,1.68,6.39,4.35s-2,5-5.2,5.31c-.61.06-12.87,1.38-15.34,11.45-4.07,16.59-3,60.59-3,61,.07,2.68-2.49,4.9-5.72,5Z" style="fill: #d09370"/>
              <path d="M265.43,244.17c3.17,0,5.77-2.1,5.84-4.74,0-1.53.76-11.64-1.43-32-.16-1.54-5.38-17.2-5.75-22-.64-8.47,2-13,1.5-15-3.37-13.75-15.73-12.73-23.11-13.35-3.21-.25-6.07,1.68-6.39,4.35s2,5,5.2,5.31c.6.06,12.87,1.38,15.34,11.45,4.07,16.59,3,60.59,3,61-.07,2.68,2.49,4.9,5.72,5Z" style="fill: #d09370"/>
              <rect x="224.18" y="133.84" width="17.53" height="36.52" rx="8.26" ry="8.26" style="fill: #d09370"/>
              <g>
                <path d="M278.39,114.53a8.44,8.44,0,1,1-8.44-8.44A8.44,8.44,0,0,1,278.39,114.53Z" style="fill: #d09370"/>
                <path d="M204.38,114.53a8.44,8.44,0,1,1-8.44-8.44A8.44,8.44,0,0,1,204.38,114.53Z" style="fill: #d09370"/>
              </g>
              <path d="M232.94,151.53h0a37,37,0,0,1-36.9-36.9V95.92c0-20.29,16.61-29.11,36.9-29.11h0c20.3,0,36.9,8.82,36.9,29.11v18.71A37,37,0,0,1,232.94,151.53Z" style="fill: #d09370"/>
              <path d="M196,112.66a72.08,72.08,0,0,0,6.45-16.06c2.92-10.23.25-21.06.25-21.06a18.38,18.38,0,0,0-5.85,8.52,45.71,45.71,0,0,0-2.19,15.46A112.36,112.36,0,0,0,196,112.66Z" style="fill: #231f20"/>
              <path d="M269.86,112.66a72.08,72.08,0,0,1-6.45-16.06c-2.92-10.23-.24-21.06-.24-21.06A18.41,18.41,0,0,1,269,84.06a45.46,45.46,0,0,1,2.19,15.46A112.36,112.36,0,0,1,269.86,112.66Z" style="fill: #231f20"/>
              <path d="M251.52,67.79c-6.27-3.37-14.16-3.84-18.82-3.85s-11.94.28-18.59,3.6C204.34,72.43,200.56,77,200.56,77s3.57-.49,5,9.08a75.3,75.3,0,0,1,.94,13h52.65a75.3,75.3,0,0,1,.94-13c1.46-9.57,5-9.08,5-9.08A75,75,0,0,0,251.52,67.79Z" style="fill: #231f20"/>
              <g>
                <g>
                  <path d="M270.72,282.86a2.73,2.73,0,0,1-2.81,1.83,3.06,3.06,0,0,0-2.4.87,2.63,2.63,0,0,1-2.44.81,2.42,2.42,0,0,0-2.09.53,3.4,3.4,0,0,1-3.2.84,2.5,2.5,0,0,0-1.64.31c-1,.64-1.92,1.23-3.09.71a2.07,2.07,0,0,0-1.93.26c-.94.55-1.91,1.07-3,.49a2.17,2.17,0,0,0-2.21.26,2.58,2.58,0,0,1-2.41.31,3.49,3.49,0,0,0-3.18.3,1.57,1.57,0,0,1-1.54.05,3.06,3.06,0,0,0-3.35.08,1.5,1.5,0,0,1-1.73,0,2.89,2.89,0,0,0-3.18-.07,1.8,1.8,0,0,1-1.84-.11,2.78,2.78,0,0,0-2.57-.26,3.28,3.28,0,0,1-3-.25,2,2,0,0,0-2,0,2.66,2.66,0,0,1-2.27-.14,3.83,3.83,0,0,0-3.16-.34A1.84,1.84,0,0,1,214,289a3.49,3.49,0,0,0-3-.64,2.72,2.72,0,0,1-2.28-.56,3.12,3.12,0,0,0-2.65-.62,2.36,2.36,0,0,1-2.08-.62,3.31,3.31,0,0,0-2.61-.95,2.66,2.66,0,0,1-2.13-.85c-.58-.55-1.15-1.22-1.94-1.15a3.14,3.14,0,0,1-2.07-.73c.21-1.43.43-2.86.64-4.29a3.1,3.1,0,0,1,2.17,1.07,4.78,4.78,0,0,0,2,1.34c.87.41,1.78.06,2.65.34a1.73,1.73,0,0,1,1.17.69,3.49,3.49,0,0,0,2.93.8,4,4,0,0,1,2.77.71,2.8,2.8,0,0,0,2.84.58,2.48,2.48,0,0,1,2.39.21c1,.55,2,1.25,3.12.71a2.79,2.79,0,0,1,2.62,0,4.09,4.09,0,0,0,3.68.27,2.65,2.65,0,0,1,2.43.2,3.57,3.57,0,0,0,3.27.1,2.89,2.89,0,0,1,2.32.1,3.74,3.74,0,0,0,3.2,0,3,3,0,0,1,2.71,0,3.47,3.47,0,0,0,3.23-.22,3.64,3.64,0,0,1,2.69-.19,4.22,4.22,0,0,0,3.28-.42,2.94,2.94,0,0,1,2.32-.32,3.12,3.12,0,0,0,2.82-.21,3.17,3.17,0,0,1,3.06-.67c1.76.72,3-1.46,4.71-1.16.26.05.89-.53,1.4-.46a3.35,3.35,0,0,0,2.69-1,3.63,3.63,0,0,1,2.69-1.08,3.46,3.46,0,0,0,2.91-1.37,3.42,3.42,0,0,1,2.81-1.31c.22,1.61.92,3.07.88,4.76l-3,.8" style="fill: #00934c"/>
                  <path d="M274,283.47a11.16,11.16,0,0,1,.89,3.38,3.86,3.86,0,0,1-2,.9,3.32,3.32,0,0,0-2.41,1.31,2.67,2.67,0,0,1-2.07,1.05c-2.3,0-4.19,2.48-6.59,1.94a.71.71,0,0,0-.55.26,3.57,3.57,0,0,1-3.66.89c-.36-.09-.77.19-1.16.25-.89.14-1.61,2.13-2.66.4-.64.66-1.45.07-2.11.45a5.1,5.1,0,0,1-4,.65,2,2,0,0,0-1.63.31,3,3,0,0,1-2.7.32,3.09,3.09,0,0,0-2.91.29,1.73,1.73,0,0,1-1.9.05,2.75,2.75,0,0,0-2.9,0,2.11,2.11,0,0,1-2.29,0,2.63,2.63,0,0,0-2.79,0,1.73,1.73,0,0,1-1.9,0,3.06,3.06,0,0,0-2.9-.25,2.5,2.5,0,0,1-2.24-.11,2.7,2.7,0,0,0-2.68-.22,1.85,1.85,0,0,1-2-.09,3.32,3.32,0,0,0-3.17-.45,1.94,1.94,0,0,1-1.83-.28,3.48,3.48,0,0,0-3-.6,2.65,2.65,0,0,1-2.19-.55,2.65,2.65,0,0,0-2.56-.64,2.19,2.19,0,0,1-2.17-.59,3.59,3.59,0,0,0-2.69-1,2.64,2.64,0,0,1-2.2-.95c-.46-.51-1-1.07-1.65-1a4.25,4.25,0,0,1-2.91-1.3,17.8,17.8,0,0,1,.62-3.45,8.86,8.86,0,0,0,1.73.53,3.5,3.5,0,0,1,2.25,1.2,2.48,2.48,0,0,0,2.38,1,2.66,2.66,0,0,1,2.25.77,2.8,2.8,0,0,0,2.53.8,2.48,2.48,0,0,1,2.19.48,3.24,3.24,0,0,0,3.32.6,1.81,1.81,0,0,1,1.62.43,2.85,2.85,0,0,0,2.78.47,3,3,0,0,1,2.58.46,2.13,2.13,0,0,0,2.2.12,2.32,2.32,0,0,1,2.22.11,2.82,2.82,0,0,0,2.6.29,3.16,3.16,0,0,1,2.82.18,2,2,0,0,0,2,0,3,3,0,0,1,3.08.12,1.55,1.55,0,0,0,1.63,0,2.88,2.88,0,0,1,2.52-.4,3.76,3.76,0,0,0,3.38-.07,2.23,2.23,0,0,1,1.84-.07,3.34,3.34,0,0,0,3.27-.4,1.77,1.77,0,0,1,1.74-.13,2.75,2.75,0,0,0,2.79-.23,3,3,0,0,1,2.7-.39,2.32,2.32,0,0,0,2.2-.44,3.38,3.38,0,0,1,2.87-.63,2.49,2.49,0,0,0,2.08-.58,3,3,0,0,1,2.54-.81,2.66,2.66,0,0,0,2.42-.81,3,3,0,0,1,2.6-1,1.74,1.74,0,0,0,1.56-.57A5.46,5.46,0,0,1,274,283.47Z" style="fill: #00934c"/>
                  <path d="M274,283.47a5.46,5.46,0,0,0-4.14,2,1.74,1.74,0,0,1-1.56.57,3,3,0,0,0-2.6,1,2.66,2.66,0,0,1-2.42.81,3,3,0,0,0-2.54.81,2.49,2.49,0,0,1-2.08.58,3.38,3.38,0,0,0-2.87.63,2.32,2.32,0,0,1-2.2.44,3,3,0,0,0-2.7.39,2.75,2.75,0,0,1-2.79.23,1.77,1.77,0,0,0-1.74.13,3.34,3.34,0,0,1-3.27.4,2.23,2.23,0,0,0-1.84.07,3.76,3.76,0,0,1-3.38.07,2.88,2.88,0,0,0-2.52.4,1.55,1.55,0,0,1-1.63,0,3,3,0,0,0-3.08-.12,2,2,0,0,1-2,0,3.16,3.16,0,0,0-2.82-.18,2.82,2.82,0,0,1-2.6-.29,2.32,2.32,0,0,0-2.22-.11,2.13,2.13,0,0,1-2.2-.12,3,3,0,0,0-2.58-.46,2.85,2.85,0,0,1-2.78-.47,1.81,1.81,0,0,0-1.62-.43,3.24,3.24,0,0,1-3.32-.6,2.48,2.48,0,0,0-2.19-.48,2.8,2.8,0,0,1-2.53-.8,2.66,2.66,0,0,0-2.25-.77,2.48,2.48,0,0,1-2.38-1,3.5,3.5,0,0,0-2.25-1.2,8.86,8.86,0,0,1-1.73-.53,3.68,3.68,0,0,1,.18-1.48,3.14,3.14,0,0,0,2.07.73c.79-.07,1.36.6,1.94,1.15a2.66,2.66,0,0,0,2.13.85,3.31,3.31,0,0,1,2.61.95,2.39,2.39,0,0,0,2.18.6,2.85,2.85,0,0,1,2.55.65,2.75,2.75,0,0,0,2.28.55,3.49,3.49,0,0,1,3,.64,1.84,1.84,0,0,0,1.64.25,3.76,3.76,0,0,1,3.37.48,1.94,1.94,0,0,0,2,0,2,2,0,0,1,2,0,3.28,3.28,0,0,0,3,.25,2.77,2.77,0,0,1,2.62.29,1.62,1.62,0,0,0,1.8.07,2.9,2.9,0,0,1,3.17.08,1.5,1.5,0,0,0,1.73,0,3.06,3.06,0,0,1,3.35-.08,1.42,1.42,0,0,0,1.52,0,3.51,3.51,0,0,1,3.2-.31,2.58,2.58,0,0,0,2.41-.31,2.17,2.17,0,0,1,2.21-.26c1.12.58,2.09.06,3-.49a2.07,2.07,0,0,1,1.93-.26c1.17.52,2.11-.07,3.09-.71a1.84,1.84,0,0,1,1.44-.36,3.43,3.43,0,0,0,3.4-.79,2.42,2.42,0,0,1,2.09-.53,2.66,2.66,0,0,0,2.5-.86,2.94,2.94,0,0,1,2.44-.82,2.72,2.72,0,0,0,2.71-1.83h0l3-.8C274.16,282.41,274,283,274,283.47Z" style="fill: #d8dee5"/>
                  <path d="M208.06,297.62a4.31,4.31,0,0,0,3.9.8,1.56,1.56,0,0,1,1.43.38,2.93,2.93,0,0,0,2.86.49,3.12,3.12,0,0,1,2.59.51,1.9,1.9,0,0,0,1.92.15,2.56,2.56,0,0,1,2.5.08,2.64,2.64,0,0,0,2.42.3c-.2.83-.82,1.07-1.29,1.43a10.55,10.55,0,0,1-10.51,1.67,9.36,9.36,0,0,1-5.48-4.51A2,2,0,0,1,208.06,297.62Z" style="fill: #9c3126"/>
                  <path d="M261.25,297a4.33,4.33,0,0,1-3.88.93,1.59,1.59,0,0,0-1.42.43,3,3,0,0,1-2.86.58,3.14,3.14,0,0,0-2.58.6,1.9,1.9,0,0,1-1.91.22,2.55,2.55,0,0,0-2.5.16,2.67,2.67,0,0,1-2.41.38c.22.82.84,1,1.32,1.38A10.5,10.5,0,0,0,255.55,303a9.67,9.67,0,0,0,5.39-4.69A2.06,2.06,0,0,0,261.25,297Z" style="fill: #9c3126"/>
                  <path d="M275.05,287.69a3.27,3.27,0,0,1-1.87,1.09,4.15,4.15,0,0,0-2.73,1.36,2.89,2.89,0,0,1-2.36,1.08,3.26,3.26,0,0,0-2.32.92,2.87,2.87,0,0,1-2.59.93,2.75,2.75,0,0,0-2.36.68c-.68.55-1.46,1.13-2.34.71a2.13,2.13,0,0,0-2.3.3,5.5,5.5,0,0,1-2.34.9,23.5,23.5,0,0,1-4.26.81c-1.47-.44-2.92-.68-4.34.28a1.66,1.66,0,0,1-1.73,0,2.58,2.58,0,0,0-2.6.08,2.65,2.65,0,0,1-2.61.12,2.69,2.69,0,0,0-2.5.05,2.44,2.44,0,0,1-2.41,0,3.09,3.09,0,0,0-3,.06,2.53,2.53,0,0,1-2.22-.25,2.52,2.52,0,0,0-2.4,0,2.11,2.11,0,0,1-2.21-.14,2.62,2.62,0,0,0-2.61-.3,2.73,2.73,0,0,1-2.6-.28,2.41,2.41,0,0,0-2.21-.32,2.78,2.78,0,0,1-2.69-.39,2.71,2.71,0,0,0-2.4-.4,2.82,2.82,0,0,1-2.63-.71,2.48,2.48,0,0,0-2.11-.41,2.78,2.78,0,0,1-2.53-.77,2.6,2.6,0,0,0-2.43-.79,2.34,2.34,0,0,1-2.2-.92,3.48,3.48,0,0,0-2.51-1.33,3.25,3.25,0,0,1-2.32-1.46c-.09.68-.17,1.36-.26,2a3.54,3.54,0,0,0,2.88,1.91,3,3,0,0,1,2.06,1.12,2.52,2.52,0,0,0,2.27,1,2.79,2.79,0,0,1,2.61.9,2.42,2.42,0,0,0,2.24.67,3.28,3.28,0,0,1,2.66.7,2.15,2.15,0,0,0,2.19.45,3.33,3.33,0,0,1,3,.65,2,2,0,0,0,2,.2,2.3,2.3,0,0,1,2.31.21,2.84,2.84,0,0,0,2.8.29,2.38,2.38,0,0,1,2.32.23,2.57,2.57,0,0,0,2.68.13,1.84,1.84,0,0,1,1.75-.05,3.11,3.11,0,0,0,3.07.28,2.63,2.63,0,0,1,2.41.06,2.65,2.65,0,0,0,2.52,0,3,3,0,0,1,2.79.06,2.7,2.7,0,0,0,2.42-.26,2.52,2.52,0,0,1,2.41,0,1.84,1.84,0,0,0,1.93,0,3.75,3.75,0,0,1,3.2-.47,3.07,3.07,0,0,0,1.85-.1l.2-.18v-.06c.86-1,3.14-.52,3.14-.52a2.22,2.22,0,0,0,2.09-.4,2.44,2.44,0,0,1,2.37-.52,2.2,2.2,0,0,0,2.19-.42,3.42,3.42,0,0,1,2.88-1,2.48,2.48,0,0,0,2.41-.84,2.89,2.89,0,0,1,2.21-.91,3.69,3.69,0,0,0,2.81-1.36,2.63,2.63,0,0,1,1.7-.92,3.87,3.87,0,0,0,3.05-1.87A4.74,4.74,0,0,0,275.05,287.69Z" style="fill: #ba5154"/>
                  <path d="M195.07,277a13.58,13.58,0,0,1,2.32.58,7.73,7.73,0,0,1,2.29,1.34c.87.81,2.14.7,3.6,1.31,2,.82,1.34,1.21,3.3,1.26.88,0,1.64-.31,2.37.31,1.2,1,2.51.86,3.82.74A3.09,3.09,0,0,1,215,283a3,3,0,0,0,2.4.48,4.93,4.93,0,0,1,3.7.38,2.38,2.38,0,0,0,2.31.12,3.33,3.33,0,0,1,2.81.06,3.23,3.23,0,0,0,2.62.26,3.81,3.81,0,0,1,3.2-.1,3.21,3.21,0,0,0,2.91,0,3.33,3.33,0,0,1,2.81-.07,3.26,3.26,0,0,0,3-.12,3.05,3.05,0,0,1,2.89-.21,2.79,2.79,0,0,0,2.6-.21,3.71,3.71,0,0,1,3.46-.35,1.75,1.75,0,0,0,1.63-.17c1.37-.79,2.77-1.42,4.31-1a2.14,2.14,0,0,0,1.92-.48,4.4,4.4,0,0,1,3.38-1.06,3.11,3.11,0,0,0,2.68-1,2.93,2.93,0,0,1,2.8-.86l2.18-.82a3.38,3.38,0,0,1,1.83-1.63,7.5,7.5,0,0,0,4-2.08c-1.53-5.78-9.78-37.86-15.79-51.44H207.39s-4,5.54-14.42,52.52A3.75,3.75,0,0,0,195.07,277Z" style="fill: #0c558a"/>
                  <path d="M207.21,224a1.29,1.29,0,0,1,.68,1.81s-9,29.93-10.24,38.42c0,0-2,9.38-2.36,12.51,0,0-.8.17-2.35-1.85C192.94,274.84,198.93,243.12,207.21,224Z" style="fill: #0065ab"/>
                  <path d="M208.49,226.44s.41-2.05,1.32-1.78c0,0,1.05-.15.6,1.31,0,0-7.29,25-9.75,40.25l-2.13,11.89-2.28-1.29s3.69-19.52,4.77-23.76C201,253.06,206.33,231.35,208.49,226.44Z" style="fill: #0065ab"/>
                  <path d="M211.31,226.31s.15-.95.56-.66a.8.8,0,0,1,.74,1.09s-6.47,22.47-9.25,39.93l-2.14,12.06-2,.09,4.26-22.92S208.55,233.58,211.31,226.31Z" style="fill: #0065ab"/>
                  <path d="M213.54,226.76s.17-.87.89-.63c0,0,.92-.23.54,1.2,0,0-5,16-10.57,53.23l-2.35-.6S209,240.07,213.54,226.76Z" style="fill: #0065ab"/>
                  <path d="M208.22,281.11s2.27-30.37,9-52.5c0,0,.59-2-.34-1.71,0,0-.67-1.18-1.41,1.93,0,0-9.55,38.12-9.44,52.3Z" style="fill: #0065ab"/>
                  <path d="M218.33,227.55s.08-.67.85-.45a.86.86,0,0,1,.64,1s-8.65,42.08-8.85,54.22c0,0-1.77-.3-2.21-1.05C208.76,281.24,215.35,234.5,218.33,227.55Z" style="fill: #0065ab"/>
                  <path d="M220.58,228.83a1.31,1.31,0,0,1,1.31-1.19c1.2,0,.77,1.44.77,1.44s-5.55,21.09-8.09,53.22H212A513.28,513.28,0,0,1,220.58,228.83Z" style="fill: #0065ab"/>
                  <path d="M225.31,228.69s0-1.86-1.34-.73c0,0-5.46,25.52-8.41,54.94a5.07,5.07,0,0,0,2.58.3A517.53,517.53,0,0,1,225.31,228.69Z" style="fill: #0065ab"/>
                  <path d="M227.58,229.13s.32-1.1-.2-1.17-1-.32-1.28,1.24c0,0-6.42,32.06-6.17,53.86l1.53.5S223.93,245.81,227.58,229.13Z" style="fill: #0065ab"/>
                  <path d="M228.72,228.19s.12-.74.76-.55.83.48.76,1c0,0-4.47,33.12-4.87,54.63a8.23,8.23,0,0,1-2.82.42S225.45,244.2,228.72,228.19Z" style="fill: #0065ab"/>
                  <path d="M231.08,228.78s-.07-.58.41-.53a.42.42,0,0,1,.38.53s-2.55,46.23-2.31,54.83c0,0-1.07,1.41-3.2,0C226.36,283.61,229.29,235,231.08,228.78Z" style="fill: #0065ab"/>
                  <path d="M232.7,229s-.08-1.11.8-1.06.58,1.17.58,1.17l-.15,55.16-3.42-.67Z" style="fill: #0065ab"/>
                  <path d="M234.9,229.05s.39,51.4.4,54.78a6.93,6.93,0,0,1,3,0s-1.4-48.7-2-54.9c0,0,0-1.37-.81-1.29S234.9,229.05,234.9,229.05Z" style="fill: #0065ab"/>
                  <path d="M237.07,228.57a.62.62,0,0,1,.6-.66c.63-.07.57.47.57.47s3.42,16.4,4.8,55.05l-3.79.81S239.51,249.67,237.07,228.57Z" style="fill: #0065ab"/>
                  <path d="M240.7,228.12s-.28-1.43-1-1-1,.87-.81,1.56c0,0,5.38,30.41,4.9,54.78,0,0,2,1.07,2.83-.3C246.66,283.2,243.93,238.78,240.7,228.12Z" style="fill: #0065ab"/>
                  <path d="M241.67,228.64s-.46-1.23.62-1.35a.84.84,0,0,1,1.11.57s6.32,31.37,8,55l-3.24-.08S244.55,236.61,241.67,228.64Z" style="fill: #0065ab"/>
                  <path d="M256.18,281.91s-4.27-28.78-10.78-54.07c0,0-.36-1.77-.93-1.26,0,0-.74.09-.49,1.28,0,0,7.84,32.92,9.27,54.05Z" style="fill: #0065ab"/>
                  <path d="M259.18,280.52s-6.92-45.14-11.54-54a1,1,0,0,0-1.52.33s7.95,29.32,10.85,55Z" style="fill: #0065ab"/>
                  <path d="M262.54,280.29s-8.55-47.51-12.34-54c0,0,.18-1.34-1.19-.57a1.66,1.66,0,0,0-.25,1.32s6.86,18.18,11.19,53.29Z" style="fill: #0065ab"/>
                  <path d="M266.13,278.42S255.83,233.56,253,226.8l-.69-1.59s-1.27-.72-1.16.43c0,0,8.58,27.37,12.72,53.8Z" style="fill: #0065ab"/>
                  <path d="M268.36,277.71A356.39,356.39,0,0,0,255,225.37a.78.78,0,0,0-1.21-.51s-.91.21-.16,1.4A315.65,315.65,0,0,1,267,278Z" style="fill: #0065ab"/>
                  <path d="M257.54,225s-1-1.1-1.25-.51a2,2,0,0,0-.14,1.61s10.1,29.42,13.37,50.64l2.38-1.12A396.53,396.53,0,0,0,257.54,225Z" style="fill: #0065ab"/>
                  <path d="M259.17,223.18s7.06,14.92,15.69,50.36c0,0-.54,1.59-1.94,1.68,0,0-6.29-29.12-14.47-50.44,0,0-.5-1.14,0-1.33A.76.76,0,0,1,259.17,223.18Z" style="fill: #0065ab"/>
                  <path d="M210.62,210.3c1.18,0,2.38,0,3.4.94,0,0,.06.06.09,0,2-.34,3.86,1.33,5.88.85.16,0,.37-.17.48-.08,1.78,1.46,3.84.05,5.67,1a2,2,0,0,0,1.57-.09,2.27,2.27,0,0,1,1.94.07,2.15,2.15,0,0,0,2.15,0,2.27,2.27,0,0,1,1.94,0,2.65,2.65,0,0,0,2.22-.08,3.45,3.45,0,0,1,2.45,0,1.63,1.63,0,0,0,1.45-.15,3.26,3.26,0,0,1,2.78-.41,2.12,2.12,0,0,0,1.74-.35,3.27,3.27,0,0,1,2.59-.37c.13,0,.31.16.39.09,1.77-1.62,4-.26,5.85-1.79.58-.49,1.28-.29,1.94-.15.29,1.85,1,3.53,1.37,5.32-.79,0-1.59.08-2.38.05a2,2,0,0,0-1.43.41,3.17,3.17,0,0,1-2.38.67c-.56,0-1.23-.24-1.66.09-1.22.9-2.5.68-3.77.68a1.62,1.62,0,0,0-1.07.19,3.55,3.55,0,0,1-3.18.5,2.37,2.37,0,0,0-1.92.26,3,3,0,0,1-2.88.07,1.21,1.21,0,0,0-1.15-.06,5.82,5.82,0,0,1-3.88.49c-1-.18-1.93-.87-3-.2a2.17,2.17,0,0,1-2.31-.06,2,2,0,0,0-1.91-.34c-1.18.6-2.22,0-3.31-.32a3.12,3.12,0,0,0-1.46-.08,2.79,2.79,0,0,1-2.14-.12,3.57,3.57,0,0,0-3.14-.67,1.44,1.44,0,0,1-1.22-.24c-.91-.54-1.78-1.38-2.87-1.28C209.82,213.47,209.89,211.74,210.62,210.3Z" style="fill: #ba5154"/>
                  <path d="M255.41,218c.68,0,1.81.83,2.26-.18,0-1.14-.9-2.83-1.15-3.83-.79,0-1.59.08-2.38.06a1.87,1.87,0,0,0-1.43.46,2.91,2.91,0,0,1-2.38.77c-.56,0-1.23-.27-1.66.09-1.22,1-2.5.79-3.77.79a1.43,1.43,0,0,0-1.07.21,3.16,3.16,0,0,1-3.18.57,2.11,2.11,0,0,0-1.92.3,2.64,2.64,0,0,1-2.88.07,1.11,1.11,0,0,0-1.15-.06,5.21,5.21,0,0,1-3.88.56c-1-.2-1.93-1-3-.23a1.94,1.94,0,0,1-2.31-.07,1.75,1.75,0,0,0-1.91-.38c-1.18.67-2.22,0-3.31-.37a2.78,2.78,0,0,0-1.46-.09,2.52,2.52,0,0,1-2.14-.14,3.24,3.24,0,0,0-3.14-.76,1.32,1.32,0,0,1-1.22-.28c-.91-.62-1.78-1.57-2.87-1.46-.2,1.31-.89,3-.87,4.38a4.32,4.32,0,0,1,3.43,1,1.08,1.08,0,0,0,.94.34,3.65,3.65,0,0,1,3.63.77,1.57,1.57,0,0,0,1.07.2c1.2,0,2.4-.4,3.57.53a1.79,1.79,0,0,0,1.63.14,3.83,3.83,0,0,1,2.76.17,2.06,2.06,0,0,0,2,.13,2.5,2.5,0,0,1,2.43-.1,3.78,3.78,0,0,0,4,0,2.82,2.82,0,0,1,2.44-.05c.7.27,1.51-.74,2.14-.16.83.78,1.64-.83,2.55-.2a1.24,1.24,0,0,0,1.36,0,4.14,4.14,0,0,1,3.08-.76c.82.06,2.91.67,3.67.06C249.27,220.46,255.15,219.6,255.41,218Z" style="fill: #d09370"/>
                  <path d="M208.57,218.45c1.3,0,2.61,0,3.75,1a.16.16,0,0,0,.1,0c2.21-.34,4.25,1.32,6.48.85.17,0,.41-.17.53-.08,2,1.45,4.23,0,6.25,1a2.36,2.36,0,0,0,1.73-.09,2.78,2.78,0,0,1,2.14.06,2.55,2.55,0,0,0,2.37,0,2.7,2.7,0,0,1,2.14,0,3.22,3.22,0,0,0,2.44-.08,4.13,4.13,0,0,1,2.71-.05,1.94,1.94,0,0,0,1.59-.16,3.93,3.93,0,0,1,3.07-.4,2.58,2.58,0,0,0,1.92-.35,3.89,3.89,0,0,1,2.86-.37c.15,0,.34.15.42.08,2-1.61,4.48-.26,6.46-1.78a2.53,2.53,0,0,1,2.14-.16c.31,1.85,1.05,3.53,1.51,5.33-.88,0-1.75.07-2.63.05a2.43,2.43,0,0,0-1.58.41,3.83,3.83,0,0,1-2.62.67c-.61,0-1.36-.24-1.83.08-1.35.91-2.75.69-4.16.69a1.84,1.84,0,0,0-1.17.19,4.22,4.22,0,0,1-3.51.49,2.86,2.86,0,0,0-2.12.27,3.56,3.56,0,0,1-3.18.06,1.53,1.53,0,0,0-1.27-.06,7,7,0,0,1-4.27.5c-1.09-.18-2.13-.88-3.33-.2a2.59,2.59,0,0,1-2.54-.06,2.3,2.3,0,0,0-2.11-.34c-1.31.59-2.45,0-3.66-.32a3.73,3.73,0,0,0-1.6-.09,3.4,3.4,0,0,1-2.37-.11,4.16,4.16,0,0,0-3.45-.67,1.81,1.81,0,0,1-1.35-.24c-1-.55-2-1.38-3.16-1.29C207.68,221.63,207.76,219.9,208.57,218.45Z" style="fill: #ba5154"/>
                  <path d="M271.9,261.92c-1.52,0-2.22.57-3.4,1.93a1.68,1.68,0,0,1-1.54.56,2.88,2.88,0,0,0-2.54,1,2.56,2.56,0,0,1-2.36.81,2.86,2.86,0,0,0-2.49.81,2.38,2.38,0,0,1-2,.58,3.28,3.28,0,0,0-2.81.63,2.24,2.24,0,0,1-2.16.44,2.82,2.82,0,0,0-2.63.39,2.66,2.66,0,0,1-2.73.23,1.69,1.69,0,0,0-1.71.13,3.21,3.21,0,0,1-3.19.4,2.1,2.1,0,0,0-1.8.07,3.68,3.68,0,0,1-3.31.07,2.75,2.75,0,0,0-2.46.39,1.48,1.48,0,0,1-1.59,0,2.91,2.91,0,0,0-3-.13,1.88,1.88,0,0,1-2-.05,3,3,0,0,0-2.75-.17,2.78,2.78,0,0,1-2.55-.29,2.22,2.22,0,0,0-2.17-.11,2.06,2.06,0,0,1-2.15-.12A2.87,2.87,0,0,0,216,269a2.72,2.72,0,0,1-2.71-.47,1.75,1.75,0,0,0-1.58-.43,3.12,3.12,0,0,1-3.25-.6,2.41,2.41,0,0,0-2.15-.48,2.71,2.71,0,0,1-2.47-.79,2.54,2.54,0,0,0-2.2-.77,2.44,2.44,0,0,1-2.33-1,3.37,3.37,0,0,0-2.2-1.2,7.24,7.24,0,0,1-1.58-.49c.11-.51.17-.91.29-1.36a2.43,2.43,0,0,0,1.79.57c.78-.08,1.34.6,1.9,1.15a2.58,2.58,0,0,0,2.09.84,3.22,3.22,0,0,1,2.55,1,2.28,2.28,0,0,0,2.13.61,2.71,2.71,0,0,1,2.5.64,2.64,2.64,0,0,0,2.23.55,3.35,3.35,0,0,1,2.9.64,1.79,1.79,0,0,0,1.61.25,3.6,3.6,0,0,1,3.29.48,1.9,1.9,0,0,0,2,0,1.94,1.94,0,0,1,1.95,0,3.14,3.14,0,0,0,2.93.25,2.68,2.68,0,0,1,2.57.29,1.55,1.55,0,0,0,1.76.07,2.76,2.76,0,0,1,3.09.08,1.44,1.44,0,0,0,1.69,0,3,3,0,0,1,3.28-.09,1.35,1.35,0,0,0,1.49,0,3.34,3.34,0,0,1,3.13-.31,2.49,2.49,0,0,0,2.36-.31,2.08,2.08,0,0,1,2.16-.26c1.09.57,2,.06,3-.49a2,2,0,0,1,1.88-.26c1.14.52,2.07-.07,3-.71a1.73,1.73,0,0,1,1.41-.35,3.32,3.32,0,0,0,3.33-.8,2.31,2.31,0,0,1,2-.52,2.57,2.57,0,0,0,2.44-.86,2.85,2.85,0,0,1,2.39-.82,2.65,2.65,0,0,0,2.65-1.83h0c1-.26,1-1.12,2.17-.81C271.65,260.91,271.68,261,271.9,261.92Z" style="fill: #d8dee5"/>
                  <path d="M268.34,276.13a3.25,3.25,0,0,1,1.79-1.46c1.67-.46,3.37-.81,4.49-2.61.46,1.88.1,2.73-1.5,3.54-.36.18-.72.34-1.08.5a3.57,3.57,0,0,0-2.78,1.17,3.56,3.56,0,0,1-2.87,1.23,3.81,3.81,0,0,0-2.64,1,3.5,3.5,0,0,1-2.65.9c-.5-.06-1.13.46-1.38.42-1.66-.28-2.9,1.67-4.64,1a3.35,3.35,0,0,0-3,.59,3.34,3.34,0,0,1-2.78.19,3.14,3.14,0,0,0-2.28.29,4.58,4.58,0,0,1-3.24.38,3.79,3.79,0,0,0-2.69.19,3.86,3.86,0,0,1-3.32.09,3.27,3.27,0,0,0-2.49.11,4,4,0,0,1-3.15,0,3.19,3.19,0,0,0-2.29-.09,3.82,3.82,0,0,1-3.22-.08,2.84,2.84,0,0,0-2.4-.19,4.37,4.37,0,0,1-3.62-.23,2.64,2.64,0,0,0-2.47-.08c-1.16.57-2.19-.08-3.18-.58a2.62,2.62,0,0,0-2.35-.19,3,3,0,0,1-2.8-.52,4.22,4.22,0,0,0-2.73-.63,3.71,3.71,0,0,1-2.89-.72,1.67,1.67,0,0,0-.72-.51l-.43-.1c-.85-.25-1.75.06-2.61-.3a4.86,4.86,0,0,1-2-1.2,3.18,3.18,0,0,0-2.14-1,4,4,0,0,1-3-2,2.44,2.44,0,0,1,0-2.29c.65.93,1.54,2.15,2.57,2.36a14.86,14.86,0,0,1,2.29.51c.55.8,1.56.94,2,1.87.29.66.62.55,1,.31a2,2,0,0,1,2.56.19l.14,0c.85.08,1.29,1,2.17,1a1.14,1.14,0,0,0,1.21.12,2.3,2.3,0,0,1,2.34.28,5,5,0,0,0,3.76.66,3.32,3.32,0,0,1,2.2.38,3.24,3.24,0,0,0,2.36.43,5.36,5.36,0,0,1,3.65.33,2.56,2.56,0,0,0,2.27.11,3.6,3.6,0,0,1,2.77.05,3.48,3.48,0,0,0,2.58.24,4.09,4.09,0,0,1,3.15-.09,3.5,3.5,0,0,0,2.87,0,3.59,3.59,0,0,1,2.77-.07,3.51,3.51,0,0,0,3-.1,3.27,3.27,0,0,1,2.85-.19,3,3,0,0,0,2.55-.19,4.07,4.07,0,0,1,3.42-.32,1.86,1.86,0,0,0,1.61-.15,5.76,5.76,0,0,1,4.24-.85,2.27,2.27,0,0,0,1.89-.43,4.61,4.61,0,0,1,3.33-.94,3.29,3.29,0,0,0,2.64-.92,3.05,3.05,0,0,1,2.76-.77Z" style="fill: #d8dee5"/>
                  <path d="M269.08,277.32a3.37,3.37,0,0,1,1.82-1.63,5.5,5.5,0,0,0,4-2.93c.47,2.11.7,3.07-.93,4-.36.2-.73.38-1.1.57a3.42,3.42,0,0,0-2.81,1.31,3.46,3.46,0,0,1-2.91,1.37,3.63,3.63,0,0,0-2.69,1.08,3.35,3.35,0,0,1-2.69,1c-.51-.07-1.14.51-1.4.46-1.69-.3-2.95,1.88-4.71,1.16a3.17,3.17,0,0,0-3.06.67,3.12,3.12,0,0,1-2.82.21,2.94,2.94,0,0,0-2.32.32,4.22,4.22,0,0,1-3.28.42,3.59,3.59,0,0,0-2.74.22,3.59,3.59,0,0,1-3.37.1,3,3,0,0,0-2.52.12,3.74,3.74,0,0,1-3.2,0,2.89,2.89,0,0,0-2.32-.1,3.57,3.57,0,0,1-3.27-.1,2.65,2.65,0,0,0-2.43-.2,4.09,4.09,0,0,1-3.68-.27,2.48,2.48,0,0,0-2.51-.09c-1.18.64-2.22-.08-3.23-.65a2.48,2.48,0,0,0-2.39-.21,2.8,2.8,0,0,1-2.84-.58,4,4,0,0,0-2.77-.71,3.49,3.49,0,0,1-2.93-.8,1.82,1.82,0,0,0-.74-.58l-.43-.11c-.87-.28-1.78.07-2.65-.34a4.78,4.78,0,0,1-2-1.34,3.1,3.1,0,0,0-2.17-1.07,4,4,0,0,1-3.06-2.21,1.86,1.86,0,0,1,.2-2.2,4.48,4.48,0,0,0,2.42,2.28,12.78,12.78,0,0,1,2.33.57c.55.9,1.1.22,1.52,1.26.29.74,1.26,1.36,1.64,1.08.91-.66,1.61-.44,2.45.32l.14,0c.86.09,1.31,1.09,2.2,1.07A1.07,1.07,0,0,0,207,281a2.15,2.15,0,0,1,2.37.31c1.2,1,2.5.87,3.82.74a3.1,3.1,0,0,1,2.23.42,3,3,0,0,0,2.39.49,4.9,4.9,0,0,1,3.71.37,2.38,2.38,0,0,0,2.31.13,3.27,3.27,0,0,1,2.8.05,3.24,3.24,0,0,0,2.62.26,3.77,3.77,0,0,1,3.2-.09,3.29,3.29,0,0,0,2.92,0,3.33,3.33,0,0,1,2.81-.08,3.24,3.24,0,0,0,3-.11,3,3,0,0,1,2.9-.22,2.77,2.77,0,0,0,2.59-.2,3.72,3.72,0,0,1,3.46-.36,1.77,1.77,0,0,0,1.64-.17c1.37-.79,2.76-1.42,4.31-.95a2.15,2.15,0,0,0,1.92-.49,4.35,4.35,0,0,1,3.38-1,3.12,3.12,0,0,0,2.68-1,2.88,2.88,0,0,1,2.8-.86Z" style="fill: #222929"/>
                  <g>
                    <path d="M272.7,270.63c-.31,0-.65,0-.5.62a1.78,1.78,0,0,1-.09,1,1,1,0,0,1-.72-.36l-.29-.34c-.87,1.34-1.34-.12-2-.48a.27.27,0,0,0,0-.18c0-.59.26-1.26-.27-1.73a.67.67,0,0,1,0-.46,2.09,2.09,0,0,0,.89-1.84c0-.33.36-.22.57-.06s.27.64.61.38.57-.65,1-.57a26.57,26.57,0,0,1,1.13,3.1C273.26,270.22,272.84,270.34,272.7,270.63Zm-1.75-2a.84.84,0,0,0-.75.91c0,.53.22.86.68.86s.65-.24.66-.84S271.3,268.67,271,268.6Z" style="fill: #ba5154"/>
                    <path d="M197.17,268.08c.35,0,.51-.59.89-.54a4.17,4.17,0,0,0,.79,1.64c.39.36-.45.89.06,1.57s-.18.93-.59,1.15c-.07,0-.19.16-.18.24.06,2.13-.7.85-1.23.53l-1,.41a10.3,10.3,0,0,1-1-3.24c-.07-.29,0-.62.16-.67.59-.14.56-.71.73-1.27.32-1,.71,0,1.07.12.07.21.15.31.27,0Zm.35,2.31c0-.58-.17-.85-.64-.84s-.58.24-.6.78.17.95.6,1S197.55,271,197.52,270.39Z" style="fill: #ba5154"/>
                    <path d="M235.69,277.7a1.81,1.81,0,0,0-1.13,1.82c-.22.34-.44.19-.58-.06-.33-.55-.66-.62-1.1-.24-.28.25-.51.12-.75-.26-.54-.85-.44-1.92-.7-2.86-.07-.28,0-.64.18-.67.61-.1.66-.65.74-1.28.05-.44.46-.58.6-.3.54,1.16,1,.3,1.56,0,.42.38.26,1.42,1,1.49,0,.24,0,.48,0,.72-.71.58-.1.7.18.93Zm-1.55-1c-.07-.48-.21-.88-.68-.88s-.74.29-.74.94.35.85.71.86S234.1,277.31,234.14,276.71Z" style="fill: #d09370"/>
                    <path d="M226.76,279.58l-.61-.32c-.17-.31-.27-.62-.68-.34s-1.75-.84-1.56-1.56a1.49,1.49,0,0,0-.11-1.25c-.13-.25-.1-.68.16-.77.54-.18.62-.64.74-1.28s.55-.49.81,0c.38.65.62.45.85-.13h.71c.21.46,0,1.24.64,1.38-.12.82.31,2.15.12,2.3C227.19,278.09,227.12,278.94,226.76,279.58Zm-1-3.76c-.3,0-.71.08-.71.72s.27.95.77.93.73-.19.74-.81S226.22,275.84,225.72,275.82Z" style="fill: #ba5154"/>
                    <path d="M202.94,270.53a.84.84,0,0,1,.74-.22c.33.44.58,1.14,1.15.27.28-.42.63-.08.71.41s.26.86.67.95c0,.6-.66,1.31.15,1.82a1.27,1.27,0,0,1-.06.44c-1,0-.81,1.82-1.46,1.72-.49-.07-.89-.73-1.48-.1-.21.22-.52-.09-.48-.54.05-.62-.39-.72-.72-.8-.11-.64.47-1.35-.08-2-.12-.13,0-.56.25-.57C203.12,271.89,202.89,271.11,202.94,270.53Zm1.16,1.69c-.43.09-.66.46-.64,1s.26,1,.74,1,.62-.52.63-1S204.64,272.24,204.1,272.22Z" style="fill: #d09370"/>
                    <path d="M257.2,277.37c-.32-.78-.7-1-1.18-.21-.16.16-.51.24-.5.1.07-1-1.44-1.11-.75-2.41a1.21,1.21,0,0,0-.3-.44c-.2-.17-.32-.57-.19-.62.88-.4.63-1.67,1.12-2.36l.49.33.05-.05c0,.23.08.4.27.45.77-.54,1.33-.26,1.86.63.35.59.46,2.48,0,2.9-.3.26-.27.55-.26.89C257.8,277.11,257.64,277.42,257.2,277.37Zm-.81-1.86c.41-.17.81-.33.77-1s-.31-1-.76-1-.75.37-.76,1S256.05,275.3,256.39,275.51Z" style="fill: #ba5154"/>
                    <path d="M247.66,278.23c-.06-.44,0-.92-.44-1.14s.13-1.17-.39-1.52c-.15-.3-.45-.57-.19-1,.93,0,.85-1,.89-1.77.23-.13.51-.19.65,0,.37.66.64.5,1,0s.52,0,.84.34c.63.71.37,1.79.84,2.49a11.39,11.39,0,0,1-1.15,2.56C249.05,277.22,248.35,278.43,247.66,278.23Zm1.79-2.66c0-.59-.21-.95-.65-1s-.72.44-.74,1,.23,1,.65,1S249.4,276.14,249.45,275.57Z" style="fill: #d09370"/>
                    <path d="M209.67,277.37c.29-.88-.63-1.05-.61-1.77a.73.73,0,0,0,0-1c-.37-.47-.16-.83.17-1.14.37,0,.84.22.67-.71a.88.88,0,0,1,.33-.87c.6,1.18,1.43.3,2.15.41.06.53-.15,1.29.6,1.21.11.71-.38,1.49.16,2.16a5,5,0,0,1-.33.58c-.42-.1-.6.15-.58.69s-.09.75-.42.89c-.48-.26-.86-1.21-1.51-.34C210.14,277.72,209.88,277.44,209.67,277.37Zm2.14-2.53c-.18-.43-.42-1-.87-1s-.7.46-.69,1.08.29.91.76.92S211.71,275.52,211.81,274.84Z" style="fill: #ba5154"/>
                    <path d="M263.16,275.21c-.62.13-.43-1.09-1-1-.17-.88-.35-1.75-.52-2.62.44-.32,1.16-.36.84-1.45.09-.49.41-.74.63-.41.53.78.9.44,1.35-.06.09-.11.31,0,.48,0,.09.41-.07.94.45,1.11.27.09.46.45.25.92-.33.76.76,1,.42,1.74-.53.16-1,.29-.9,1.29,0,.5-.45.68-.62.41C264,274.12,263.61,275,263.16,275.21Zm.67-1.74c.52-.07.65-.59.64-1.1s-.2-.92-.66-.91-.68.43-.67,1S263.35,273.45,263.83,273.47Z" style="fill: #d09370"/>
                    <path d="M220.17,277.38c-.95-.12-.77.82-.84,1.53-.26.1-.55.2-.72-.14-.3-.62-.57-.66-1-.22s-.72.14-.74-.51-.29-.6-.59-.65c-.09-.66.46-1.37-.19-2-.2-.21.25-.66.55-.82.18,0,.35,0,.36-.3.06-1,.19-1.68,1.05-.67.45.55,1-.54,1.54,0-.23.85.51,1,.66,1.57C219.65,275.83,220.53,276.63,220.17,277.38ZM218.9,276c-.14-.53-.33-1-.83-.92s-.67.41-.65,1,.33,1,.78.92S218.85,276.57,218.9,276Z" style="fill: #d09370"/>
                    <path d="M243.26,277.45c-.45.08-.8.15-.72,1s-.37.91-.84.48c-.17-.16-.36-.61-.54-.33-.74,1.19-1.08.29-1.49-.41a3.37,3.37,0,0,1-.18-3.07c.22,0,.39-.07.38-.42-.06-1.13.17-1.57.93-.66.17.21.33.3.5.07.51-.69.91-.89,1.07.35,0,.09.28.11.43.17A13.74,13.74,0,0,1,243.26,277.45Zm-2.16-2.08a1.17,1.17,0,0,0-.64,1.1c0,.62.22,1,.71,1s.66-.44.65-.92A1,1,0,0,0,241.1,275.37Z" style="fill: #ba5154"/>
                    <path d="M271,268.6c.35.07.59.32.59.93s-.21.85-.66.84-.69-.33-.68-.86A.84.84,0,0,1,271,268.6Z" style="fill: #d09370"/>
                    <path d="M197.52,270.39c0,.61-.22.93-.64.91s-.61-.39-.6-1,.19-.77.6-.78S197.55,269.81,197.52,270.39Z" style="fill: #d09370"/>
                    <path d="M234.14,276.71c0,.6-.31.94-.71.92s-.71-.24-.71-.86.26-.94.74-.94S234.07,276.23,234.14,276.71Z" style="fill: #f3e7d8"/>
                    <path d="M225.72,275.82c.5,0,.81.22.8.84s-.32.79-.74.81-.77-.33-.77-.93S225.42,275.84,225.72,275.82Z" style="fill: #d09370"/>
                    <path d="M204.1,272.22c.54,0,.73.49.73,1s-.18,1-.63,1-.71-.39-.74-1S203.67,272.31,204.1,272.22Z" style="fill: #f3e7d8"/>
                    <path d="M256.39,275.51c-.34-.21-.76-.37-.75-1s.3-1,.76-1,.73.37.76,1S256.8,275.34,256.39,275.51Z" style="fill: #d09370"/>
                    <path d="M249.45,275.57c0,.57-.29,1-.74,1s-.66-.48-.65-1,.21-1,.74-1S249.43,275,249.45,275.57Z" style="fill: #f3e7d8"/>
                    <path d="M211.81,274.84c-.1.68-.3,1.05-.8,1s-.75-.26-.76-.92.33-1,.69-1.08S211.63,274.41,211.81,274.84Z" style="fill: #d09370"/>
                    <path d="M263.83,273.47c-.48,0-.69-.39-.69-1s.18-1,.67-1,.66.43.66.91S264.35,273.4,263.83,273.47Z" style="fill: #f3e7d8"/>
                    <path d="M218.9,276c-.05.55-.32.92-.7,1s-.75-.31-.78-.92.23-.91.65-1S218.76,275.49,218.9,276Z" style="fill: #f3e7d8"/>
                    <path d="M241.1,275.37a1,1,0,0,1,.72,1.14c0,.48-.18.92-.65.92s-.7-.34-.71-1A1.17,1.17,0,0,1,241.1,275.37Z" style="fill: #d09370"/>
                  </g>
                </g>
                <g>
                  <path d="M275.67,229.4c-4.15-23.8-9.24-34.79-9.24-34.79l-.46-2.56a46.56,46.56,0,0,0-.82-17.36c2.44-.4,1.28-3,1.28-3-1-6.17-6.93-10.65-6.93-10.65-2.57-3-3.52-1.15-3.52-1.15s-4.49,8.91-22.91,9.49c-18.41-.58-22.9-9.49-22.9-9.49-1.27-1.39-3.52,1.15-3.52,1.15s-5.91,4.48-6.93,10.65c0,0-1.16,2.6,1.28,3a46.56,46.56,0,0,0-.82,17.36l-.46,2.56s-5.09,11-9.24,34.79c0,0-.88,3.36,1,4.15a2.72,2.72,0,0,0,2.67-.71s.65,2.71,2.2,3a2.17,2.17,0,0,0,2.27-.72s.58,2.35,2.16,2.57c0,0,1.39.29,1.77-.53a118.65,118.65,0,0,0,8.58-26.43l.09-.31a69.93,69.93,0,0,0,21.33,4.1v0l.56,0a3.82,3.82,0,0,1,.57,0v0a69.93,69.93,0,0,0,21.33-4.1l.09.31a118.65,118.65,0,0,0,8.58,26.43c.38.82,1.77.53,1.77.53,1.57-.22,2.15-2.57,2.15-2.57a2.19,2.19,0,0,0,2.28.72c1.55-.32,2.2-3,2.2-3a2.72,2.72,0,0,0,2.67.71C276.55,232.76,275.67,229.4,275.67,229.4Zm-73.5.2c.58,1.84.13,2.76-1.35,2.78a2.13,2.13,0,0,1-.48-2.56C200.81,228.9,201.52,229.14,202.17,229.6Zm-2-5c.54,0,.78.44.8,1.05s-.23,1.06-.67,1.12-.7-.51-.81-1.06C199.54,225.17,199.67,224.68,200.16,224.63ZM196,223.28c.53,0,.74.53.73,1.12s-.19,1-.71.95-.7-.32-.78-.9C195.4,223.93,195.46,223.29,196,223.28Zm-2.23,8.1a1.42,1.42,0,0,1-1.18,1c-.79.12-1.42-.76-1.42-2.08.08-.2-.06-.68.22-.82s.39.23.57.4.72.45,1,.75S193.91,230.84,193.78,231.38Zm-.29-2.28c-.65,0-1.16-.63-1.18-1.56s.28-1.49,1.06-1.53,1.14.47,1.23,1.31C194.63,228.45,194.11,229.06,193.49,229.1Zm.47-4.58c-.49,0-.7-.52-.69-1.06s.27-1,.73-1,.71.48.84,1C194.69,224.09,194.48,224.56,194,224.52Zm.89,2.26a.83.83,0,0,1,.77-.94c.4,0,.82.35.79,1.06s-.33,1-.77.94S194.84,227.49,194.85,226.78Zm.54,6.47c.24-.3.31-.79.68-.91a4.14,4.14,0,0,1,2.27.95C197.48,235,196.09,234.86,195.39,233.25Zm2.94-3.42c-.29.76-.77,1.31-1.52,1a1.65,1.65,0,0,1-.66-2.21c.31-.85.94-1.23,1.66-.61A1.55,1.55,0,0,1,198.33,229.83Zm-.15-3.78c-.53.13-.73-.44-.92-1,.08-.58.3-1,.74-1.08s.83.38.88,1A1,1,0,0,1,198.18,226.05Zm.51,2.24c.14-.49.27-1.08.79-1.09s.72.39.75,1-.11,1-.63,1.09S198.85,228.92,198.69,228.29Zm4,6.86c-.82,1.41-1.56,1.49-3,.25a6.37,6.37,0,0,0-.17-.87c-.28-.85-.11-1.22.61-1.06a2.69,2.69,0,0,0,.49,0c.5.66,1.19.44,1.79.62S203,234.6,202.65,235.15Zm.14-7.92c-.46,0-.94,0-1.1-.72a1.08,1.08,0,0,1,.28-1c.42-.44.79-.12,1.16.14A1.59,1.59,0,0,1,202.79,227.23Zm67.35-3.95c.55,0,.61.65.76,1.17-.09.58-.3.88-.78.9s-.71-.41-.72-.95S269.61,223.27,270.14,223.28ZM266,224.63c.49.05.62.54.68,1.11-.11.55-.28,1.12-.81,1.06s-.68-.58-.67-1.12S265.45,224.59,266,224.63Zm-.18,5.19a2.14,2.14,0,0,1-.48,2.56c-1.48,0-1.93-.94-1.36-2.78C264.63,229.14,265.34,228.9,265.81,229.82Zm-2.8-4.19c.38-.26.75-.58,1.17-.14a1.08,1.08,0,0,1,.28,1c-.16.76-.64.74-1.11.72A1.64,1.64,0,0,1,263,225.63Zm3.62,8.9a8.38,8.38,0,0,0-.18.87c-1.39,1.24-2.13,1.16-2.95-.25-.32-.55-.39-.83.24-1s1.29,0,1.79-.62a2.69,2.69,0,0,0,.49,0C266.74,233.31,266.91,233.68,266.63,234.53Zm-.09-5.25c-.51-.07-.66-.51-.62-1.09s.29-1,.75-1,.64.6.79,1.09C267.3,228.92,267.09,229.36,266.54,229.28Zm.73-4.3c0-.58.34-1.07.88-1s.66.5.74,1.08c-.2.51-.39,1.08-.92,1A1,1,0,0,1,267.27,225Zm1.07,3c.72-.62,1.34-.24,1.66.61a1.65,1.65,0,0,1-.66,2.21c-.75.35-1.24-.2-1.53-1A1.55,1.55,0,0,1,268.34,228Zm-.53,5.32a4.14,4.14,0,0,1,2.27-.95c.37.12.44.61.67.91C270.06,234.86,268.67,235,267.81,233.29Zm2.69-5.45c-.44,0-.74-.31-.77-.94s.4-1.08.79-1.06a.82.82,0,0,1,.77.94C271.31,227.49,271,227.82,270.5,227.84Zm1.65-5.39c.46,0,.72.47.73,1s-.2,1-.69,1.06-.74-.43-.89-1C271.43,222.93,271.63,222.44,272.15,222.45Zm-.6,4.87c.09-.84.45-1.35,1.23-1.31s1.07.67,1.05,1.53-.52,1.6-1.17,1.56S271.52,228.45,271.55,227.32Zm2,5a1.42,1.42,0,0,1-1.18-1c-.14-.54.51-.49.79-.77s.7-.45,1-.75.36-.51.57-.4.14.62.22.82C275,231.6,274.34,232.48,273.55,232.36Z" style="fill: #f8f8f7"/>
                  <path d="M259.08,198.91s-1.47-10-1.08-13.38l-2.26-.06,1,14.25Z" style="fill: #d8dee5"/>
                  <path d="M265.38,179.49a4.06,4.06,0,0,0-1.43,1.37,4.18,4.18,0,0,1-3.58,2c-1.07.08-1.75.79-1.93,2.25a1,1,0,0,1-.45.81c-.35.92-1.09.83-1.69,1.09a33.8,33.8,0,0,0-.36-3.63c-.08-.53-.09-1.23.45-1.16,1.12.14,1.58-.84,2-1.87.24-.64.49-.64.81-.3,1.45,1.52,3.22.17,3.62-1.9.15-.81.46-1.1,1.08-1a7.73,7.73,0,0,0,1.36,0C265.37,177.84,265.22,178.78,265.38,179.49Z" style="fill: #d8dee5"/>
                  <path d="M259.24,160.74a4.71,4.71,0,0,0-2.8-1.52s-1.78,5.23-1.23,17.32C255.21,176.54,256,164.64,259.24,160.74Z" style="fill: #d8dee5"/>
                  <path d="M273.44,218.49c-.1,0-.2,0-.3,0-.54.1-1,.9-1.57.42s-.17-1.3-.32-2c-.61-2.73-1-5.57-1.8-8.19-1.29-4.17-2.37-8.46-3.94-12.48-.16-.42-.23-.9-.35-1.35-.3-.11-.46.13-.6.42a1.4,1.4,0,0,0,0,1.08c.66,1.86,1.27,3.77,1.86,5.67a4.41,4.41,0,0,1,.08,1.16c0,.92-.18,1.9.8,2.34.48.22.41,1.14.58,1.74A72.61,72.61,0,0,1,270.45,219c.13,1.12-.58.73-.9.94s-.53-.09-.63-.63c-.42-2.12-.89-4.23-1.38-6.33s-1.05-4.44-1.6-6.65c-.51-2-1.16-3.93-1.54-6-.3-1.59-1.11-3-1-4.7-.41-.11-.67.32-1,.49a6.61,6.61,0,0,0,.67,3.09c1.06,3.54,1.84,7.2,2.77,10.79.85,3.26,1.46,6.63,2.2,9.94.13.59-.17.58-.4.66-.42.15-.94.54-1.21-.23a10.59,10.59,0,0,1-.43-2c-.4-2.84-1.06-5.58-1.72-8.32s-1.17-5.68-1.92-8.44a22,22,0,0,0-1-3.91,3,3,0,0,1-.14-1.27.66.66,0,0,0-.78.41c-.34.91.17,1.67.33,2.44.66,3.07,1.57,6,2.16,9.13s1.54,6.35,1.91,9.67c0,.46.26.89.35,1.35.4,2,.24,2.27-1.24,2.52-.34.06-.4-.26-.46-.52a12.62,12.62,0,0,1-.27-1.65c-.35-3.57-1.07-7-1.66-10.54s-1.44-7.09-2.2-10.62a10.17,10.17,0,0,1-.15-1.55c-1.12.1-2.15.79-3.29.74,0,4.23-.61,8.39-.9,12.58.29,1.85.95,3.53,1.37,5.32a9.15,9.15,0,0,1,.71,2.67,15.27,15.27,0,0,1,1.23,4.81c.12.53.57.88.52,1.51a86.36,86.36,0,0,1,3.56,9,24.38,24.38,0,0,0,1.19,3.13c1.63.85,2.52.68,3.2-.6-.09-.3-.18-.6-.28-.9a4.71,4.71,0,0,1-.94.69c-.84.44-1.41.13-2-.93-.28-.49-.37-.76.05-1l.21-.09a7.91,7.91,0,0,0,1.37-.27,1.14,1.14,0,0,0,.4-.34h0c-.07-.37-.13-.75-.2-1.12-1.48,0-1.93-.94-1.35-2.78,0-.88-.56-1.51-.62-2.37a1.59,1.59,0,0,1-.34-1.6,1.32,1.32,0,0,1-.62-1.23c0-.61.52-.47.79-.54a68.09,68.09,0,0,0,7.73-2.59c.91-.34,2-.39,2.76-1.46C273.7,219.33,273.78,218.83,273.44,218.49Zm-15.29-18.72a1.32,1.32,0,0,1,.65,1.07c.51,2.54.91,5.12,1.53,7.62.37,1.52.47,3.13.79,4.68.49,2.38.74,4.84,1.1,7.25.1.67.42,1.66-.1,1.86-.69.27-.71-.94-.91-1.52-1.17-3.5-1.54-7.28-2.1-11C258.61,206.46,258.44,203.17,258.15,199.77Zm2.53,27c0-.67.5-.8.81-1.17.36.42.91.57.82,1.35-.06.58-.38.93-.82.9S260.68,227.44,260.68,226.8Zm2.32,2.8c0,.64-.2,1.08-.75,1.15a1.05,1.05,0,0,1-.73-1.14c0-.52.28-1.09.81-1.05S263,229,263,229.6Z" style="fill: #d8dee5"/>
                  <path d="M267,196.38l-1.19.63c-.3-.11-.46.13-.6.42a1.79,1.79,0,0,0-1.2.34c-.41-.11-.67.32-1,.48a2.15,2.15,0,0,0-1.19.31.67.67,0,0,0-.78.42,2.3,2.3,0,0,0-1.23.23c-1.12.1-2.15.79-3.29.74,0-.79,0-1.58,0-2.36l2.35-.82a31.43,31.43,0,0,0,7.68-2.94C266.47,194.75,267,195.49,267,196.38Z" style="fill: #ba5154"/>
                  <g>
                    <path d="M261.54,187.17c-.16-.33-.24-.89-.64-.76s-.29.83-.35,1.28c-.5.45-.79,1.2-1.47,1.42-.48.16-.13.51.06.79.44.62,1.23.9,1.14,2.07,0,.42.31.57.45.28.43-.84,1.08-.62,1.66-.77.28-.08.76-.15.55-.62-.45-1.05.07-1.61.56-2.28C262.79,188.1,261.75,188.6,261.54,187.17Z" style="fill: #f8f8f7"/>
                    <path d="M266.51,185.63c.36.41-.36,1.46.53,1.55l0,1.24c-.34.08-.41.43-.4.78.05.93-.33,1-.84.75s-1-.73-1.59-.39c-.23.12-.42-.21-.31-.45.42-.9-.23-1.5-.3-2.25,0-.26-.33-.5-.07-.79s.4-.36.62-.11c.59.69.83-.71,1.35-.38C265.83,186.36,266.18,185.57,266.51,185.63Zm-1.07,2.81c.34-.1.5-.4.47-.85s-.25-.72-.6-.63a.59.59,0,0,0-.52.65A.81.81,0,0,0,265.44,188.44Z" style="fill: #ba5154"/>
                    <path d="M256.89,192.64h-.51a2.49,2.49,0,0,1-.31-1.75c.59.26,1.13.25.89-.84s-.71.06-1.07,0l-.08-1.44c.67-.29,1.48-.19,1.87-1.21a2.2,2.2,0,0,1,.36,2.07.75.75,0,0,0,.15.85l-.06,1.26c-.38,0-.55.35-.6.81C257.21,192,256.92,191.86,256.89,192.64Z" style="fill: #ba5154"/>
                    <path d="M255.89,190c.36.09.81-1.13,1.07,0s-.3,1.1-.89.84A1,1,0,0,1,255.89,190Z" style="fill: #d09370"/>
                    <path d="M261.54,187.17c.21,1.43,1.25.93,2,1.41-.49.67-1,1.23-.56,2.28.21.47-.27.54-.55.62-.58.15-1.23-.07-1.66.77-.14.29-.49.14-.45-.28.09-1.17-.7-1.45-1.14-2.07-.19-.28-.54-.63-.06-.79.68-.22,1-1,1.47-1.42C261.11,188.28,261.2,187.31,261.54,187.17Zm-.34,3.15a.57.57,0,0,0,.5-.63c0-.46-.3-.82-.65-.8s-.46.35-.47.74A.6.6,0,0,0,261.2,190.32Z" style="fill: #ba5154"/>
                    <path d="M261.54,187.17c-.34.14-.43,1.11-1,.52.06-.45-.18-1.11.35-1.28S261.38,186.84,261.54,187.17Z" style="fill: #d09370"/>
                    <path d="M266.51,185.63c-.33-.06-.68.73-1,0,.26-.31.24-1.1.76-.93C266.65,184.77,266.49,185.28,266.51,185.63Z" style="fill: #6b7377"/>
                    <path d="M258.13,191.54l.06-1.26c.45,0,.61.41.69.86s-.27.46-.5.55Z" style="fill: #d09370"/>
                    <path d="M265.44,188.44a.81.81,0,0,1-.65-.83.59.59,0,0,1,.52-.65c.35-.09.57.16.6.63S265.78,188.34,265.44,188.44Z" style="fill: #d09370"/>
                    <path d="M256.89,192.64c0-.78.32-.61.64-.29,0,.27.11.63-.17.76S257,192.92,256.89,192.64Z" style="fill: #6b7377"/>
                    <path d="M261.2,190.32a.6.6,0,0,1-.62-.69c0-.39.23-.72.47-.74s.62.34.65.8A.57.57,0,0,1,261.2,190.32Z" style="fill: #d09370"/>
                  </g>
                  <path d="M207.06,198.91s1.47-10,1.09-13.38l2.26-.06-1,14.25Z" style="fill: #d8dee5"/>
                  <path d="M200.77,179.49a4.06,4.06,0,0,1,1.43,1.37,4.18,4.18,0,0,0,3.57,2c1.08.08,1.75.79,1.94,2.25a1,1,0,0,0,.44.81c.36.92,1.1.83,1.7,1.09a33.8,33.8,0,0,1,.36-3.63c.07-.53.09-1.23-.45-1.16-1.12.14-1.58-.84-2-1.87-.24-.64-.49-.64-.81-.3-1.46,1.52-3.23.17-3.62-1.9-.15-.81-.46-1.1-1.09-1a7.62,7.62,0,0,1-1.35,0C200.77,177.84,200.93,178.78,200.77,179.49Z" style="fill: #d8dee5"/>
                  <path d="M192.45,219.8c.74,1.07,1.84,1.12,2.76,1.46a67.93,67.93,0,0,0,7.72,2.59c.27.07.77-.07.8.54a1.36,1.36,0,0,1-.62,1.23,1.59,1.59,0,0,1-.34,1.6c-.06.86-.6,1.49-.62,2.37.58,1.84.13,2.76-1.35,2.78-.07.37-.14.75-.2,1.12h0a1.14,1.14,0,0,0,.4.34,7.91,7.91,0,0,0,1.37.27l.21.09c.41.19.33.46.05,1-.62,1.06-1.19,1.37-2,.93a5,5,0,0,1-1-.69l-.27.9c.68,1.28,1.57,1.45,3.2.6a26,26,0,0,0,1.19-3.13,86.36,86.36,0,0,1,3.56-9c0-.63.39-1,.52-1.51a15.54,15.54,0,0,1,1.22-4.81,9.49,9.49,0,0,1,.72-2.67c.41-1.79,1.08-3.47,1.37-5.32-.29-4.19-.91-8.35-.9-12.58-1.14,0-2.18-.64-3.29-.74a10.17,10.17,0,0,1-.15,1.55c-.76,3.53-1.59,7-2.2,10.62s-1.31,7-1.66,10.54a12.62,12.62,0,0,1-.27,1.65c-.06.26-.12.58-.46.52-1.48-.25-1.64-.55-1.24-2.52.09-.46.29-.89.35-1.35.37-3.32,1.3-6.44,1.91-9.67s1.5-6.06,2.16-9.13c.16-.77.67-1.53.33-2.44a.67.67,0,0,0-.79-.41,2.85,2.85,0,0,1-.13,1.27,22,22,0,0,0-1,3.91c-.76,2.76-1.24,5.64-1.92,8.44a84.58,84.58,0,0,0-1.72,8.32,10.59,10.59,0,0,1-.43,2c-.27.77-.79.38-1.21.23-.23-.08-.53-.07-.4-.66.74-3.31,1.35-6.68,2.2-9.94.92-3.59,1.7-7.25,2.77-10.79a6.61,6.61,0,0,0,.67-3.09c-.33-.17-.59-.6-1-.49.07,1.72-.74,3.11-1,4.7-.39,2-1,4-1.54,6-.56,2.21-1.09,4.43-1.61,6.65s-.95,4.21-1.37,6.33c-.1.54-.26.88-.63.63s-1,.18-.9-.94a72.61,72.61,0,0,1,2.53-11.68c.17-.6.1-1.52.57-1.74,1-.44.78-1.42.81-2.34a4.41,4.41,0,0,1,.08-1.16c.59-1.9,1.2-3.81,1.86-5.67a1.4,1.4,0,0,0,0-1.08c-.14-.29-.31-.53-.6-.42-.12.45-.19.93-.35,1.35-1.57,4-2.65,8.31-3.94,12.48-.81,2.62-1.19,5.46-1.8,8.19-.15.65.19,1.5-.32,2s-1-.32-1.57-.42c-.1,0-.2,0-.3,0C192.37,218.83,192.45,219.33,192.45,219.8ZM207,209.73c-.57,3.72-.93,7.5-2.1,11-.2.58-.22,1.79-.92,1.52-.51-.2-.19-1.19-.09-1.86.36-2.41.61-4.87,1.09-7.25.32-1.55.42-3.16.8-4.68.62-2.5,1-5.08,1.53-7.62a1.32,1.32,0,0,1,.65-1.07C207.71,203.17,207.54,206.46,207,209.73Zm-2.38,18.15c-.44,0-.76-.32-.83-.9-.08-.78.47-.93.83-1.35.31.37.81.5.81,1.17S205.13,227.84,204.66,227.88Zm-.84.68c.53,0,.79.53.81,1.05a1.05,1.05,0,0,1-.73,1.14c-.56-.07-.74-.51-.75-1.15S203.36,228.59,203.82,228.56Z" style="fill: #d8dee5"/>
                  <path d="M199.15,196.38l1.18.63c.3-.11.46.13.61.42a1.79,1.79,0,0,1,1.2.34c.41-.11.66.32,1,.48a2.09,2.09,0,0,1,1.18.31.68.68,0,0,1,.79.42,2.31,2.31,0,0,1,1.23.23c1.11.1,2.15.79,3.29.74,0-.79,0-1.58,0-2.36l-2.35-.82a31.65,31.65,0,0,1-7.69-2.94C199.68,194.75,199.18,195.49,199.15,196.38Z" style="fill: #ba5154"/>
                  <g>
                    <path d="M202.65,188.58c.49.67,1,1.23.55,2.28-.2.47.28.54.56.62.58.15,1.23-.07,1.66.77.14.29.49.14.45-.28-.09-1.17.69-1.45,1.13-2.07.2-.28.55-.63.07-.79-.68-.22-1-1-1.47-1.42-.07-.45.18-1.11-.35-1.28s-.48.43-.65.76C204.4,188.6,203.35,188.1,202.65,188.58Z" style="fill: #f8f8f7"/>
                    <path d="M200.62,185.58c.52-.33.76,1.07,1.35.38.22-.25.44-.09.62.11s-.05.53-.07.79c-.07.75-.72,1.35-.31,2.25.12.24-.07.57-.3.45-.61-.34-1.08.13-1.59.39s-.9.18-.85-.75c0-.35-.06-.7-.39-.78l0-1.24c.89-.09.17-1.14.53-1.55C200,185.57,200.32,186.36,200.62,185.58Zm.74,2a.59.59,0,0,0-.52-.65c-.35-.09-.57.16-.6.63s.12.75.47.85A.81.81,0,0,0,201.36,187.61Z" style="fill: #ba5154"/>
                    <path d="M209.26,192.64h.51a2.49,2.49,0,0,0,.31-1.75c-.59.26-1.13.25-.89-.84s.71.06,1.07,0l.07-1.44c-.66-.29-1.47-.19-1.87-1.21a2.19,2.19,0,0,0-.35,2.07.77.77,0,0,1-.15.85l.06,1.26c.38,0,.55.35.6.81C208.94,192,209.23,191.86,209.26,192.64Z" style="fill: #ba5154"/>
                    <path d="M210.26,190c-.36.09-.81-1.13-1.07,0s.3,1.1.89.84A1,1,0,0,0,210.26,190Z" style="fill: #d09370"/>
                    <path d="M205.6,187.69c.5.45.79,1.2,1.47,1.42.48.16.13.51-.07.79-.44.62-1.22.9-1.13,2.07,0,.42-.31.57-.45.28-.43-.84-1.08-.62-1.66-.77-.28-.08-.76-.15-.56-.62.46-1.05-.06-1.61-.55-2.28.7-.48,1.75,0,1.95-1.41C205,187.31,205,188.28,205.6,187.69Zm0,1.94c0-.39-.24-.72-.48-.74s-.61.34-.64.8a.57.57,0,0,0,.5.63A.6.6,0,0,0,205.57,189.63Z" style="fill: #ba5154"/>
                    <path d="M204.6,187.17c.35.14.44,1.11,1,.52-.07-.45.18-1.11-.35-1.28S204.77,186.84,204.6,187.17Z" style="fill: #d09370"/>
                    <path d="M199.64,185.63c.32-.06.68.73,1,0-.26-.31-.24-1.1-.76-.93S199.66,185.28,199.64,185.63Z" style="fill: #6b7377"/>
                    <path d="M208,191.54l-.06-1.26c-.45,0-.61.41-.69.86s.26.46.49.55Z" style="fill: #d09370"/>
                    <path d="M200.71,188.44a.81.81,0,0,0,.65-.83.59.59,0,0,0-.52-.65c-.35-.09-.57.16-.6.63S200.36,188.34,200.71,188.44Z" style="fill: #d09370"/>
                    <path d="M209.26,192.64c0-.78-.32-.61-.64-.29,0,.27-.12.63.17.76S209.17,192.92,209.26,192.64Z" style="fill: #6b7377"/>
                    <path d="M205,190.32a.6.6,0,0,0,.62-.69c0-.39-.24-.72-.48-.74s-.61.34-.64.8A.57.57,0,0,0,205,190.32Z" style="fill: #d09370"/>
                  </g>
                  <path d="M256,191.47s-27.15-3.71-46.63.76l.12,2.58s16.34-4.81,46.55-.5Z" style="fill: #d8dee5"/>
                  <path d="M206.82,161a4.71,4.71,0,0,1,2.79-1.52s1.79,5.23,1.23,17.32C210.84,176.75,210.07,164.86,206.82,161Z" style="fill: #d8dee5"/>
                  <g>
                    <path d="M241.35,200.23c.23,0,.5.58.68-.13.23-.92.69-.66,1.15-.34.26,1.27,1.06.59,1.62.77a1.55,1.55,0,0,1-.26,1.6c-.42.37-.16.55.09.84,1,1.08,1,1.2-.11,1.92a.78.78,0,0,0-.35.9l-.08.29c-.63-.14-1.22-.19-1.53.77-.2,0-.52,0-.56-.1-.39-1.15-1.06-.92-1.78-.77-.32.07-.84.25-1-.31a1.5,1.5,0,0,1,.44-1.36.9.9,0,0,0,.12-1.47c-.53-.59.08-1,.16-1.44.24-.06.55,0,.57-.52C240.58,200.17,241,200.29,241.35,200.23Zm2,2.83c-.16-.61-.4-1.18-.92-1.16s-.89.56-.86,1.29.32,1.11.9,1S243.22,203.69,243.33,203.06Z" style="fill: #ba5154"/>
                    <path d="M220.43,205c-.13-.32-.21-.71,0-.94.76-.67.42-1.34.12-2.13-.15-.41-.48-1-.11-1.44s.93-.1,1.28.25.67.75,1-.21c.17-.55.68-.35,1.07-.18,0,.54.19.78.61.71s.64.3.65.85c0,.27-.23.69.14.73.85.1.82.77.68,1.56-.33.27-1.13.25-.38,1.18.17.2.09.73.13,1.11a1.17,1.17,0,0,1-1.21,0c-.45-.42-.45-.42-.6.18-.28,1.14-.69,1.27-1.34.41-.12-.17-.25-.27-.42-.23a1,1,0,0,1-.78-.17C221.44,205.71,221.31,205,220.43,205Zm3.78-1.12c-.14-.64-.4-1.16-.92-1.21s-1,.41-1,1.16c0,.59.29,1.14.87,1.2S224,204.46,224.21,203.86Z" style="fill: #ba5154"/>
                    <path d="M212.53,203.66c-.54-.08-1.27.2-1.16-1.08a.79.79,0,0,0,.28-1.13c-.3-.54,0-.86.24-1.18.27-.08.74.12.51-.64s.06-1.08.64-1c.48.28.94.41,1.22-.4.12-.32.37-.32.6-.38.6.41.48,1.18.52,1.86,1.53.07,1.58.14,1.27,1.68l-.12.24,0,.1.06.06a2.1,2.1,0,0,1,.18,1c-.93,0-.92.82-.85,1.7-.09.31-.32.62-.5.43-.94-1-1.2.35-1.71.84-.57-.09-.69-.68-.78-1.27C212.85,204.16,213,203.69,212.53,203.66Zm2.37-1.9c0-.7-.19-1.29-.86-1.24s-.89.43-.92,1.1.36,1.22.92,1.24S214.93,202.56,214.9,201.76Z" style="fill: #ba5154"/>
                    <path d="M235.77,205.23c0,.39-.1.77-.37.78-.9,0-.87.81-.86,1.62-.46.79-.89.73-1.33-.06-.06-.11-.06-.83-.43-.28-.53.11-1.07,1.08-1.6,0,.14-.49.14-1-.3-1.13s-.51-.62-.3-1.15c.25-.17.52-.4.15-.73-.64-.57-.48-1.09,0-1.64.54.06,1,0,.86-1a1.05,1.05,0,0,1,.33-1,1.12,1.12,0,0,1,.84.71c.31.81.44.15.64-.06.69-.28,1.38-.57,1.25,1,0,.19.14.26.27.3l.61.43C235.24,203.83,234.81,204.67,235.77,205.23Zm-3.13-1.87c-.4-.08-.58.54-.6,1.15s.2,1.23.78,1.24,1-.51,1-1.31S233.39,203.44,232.64,203.36Z" style="fill: #ba5154"/>
                    <path d="M252.32,197.05a1,1,0,0,1,.37.87c-.08,1,.42.7.83.65a.61.61,0,0,1,.7.34c.14.38-.12.6-.3.86s-.87.62-.24,1.26c.44.56.84,1.12,0,1.67-.22,0-.49-.14-.57.24-.16.85-.64.78-1.12.73-.16-.35-.41-.38-.54-.07-.44,1.05-.85.49-1.29,0,0-1.57-.92-.77-1.43-1-.07-.69,0-1.27.57-1.56a.31.31,0,0,0,.21-.37,3.33,3.33,0,0,1,.45-2.54,2,2,0,0,0,.1-.21l0-.26.15-.35c.63.3,1.25.61,1.82-.17C252.1,197.05,252.23,197.07,252.32,197.05Zm-1.64,3.61c0,.66.2,1.24.81,1.17a1.11,1.11,0,0,0,.94-1.26c0-.69-.41-1.09-.94-1.08S250.62,199.88,250.68,200.66Z" style="fill: #ba5154"/>
                    <path d="M250,198.11a3.33,3.33,0,0,0-.45,2.54.31.31,0,0,1-.21.37c-.07-.9-.91-.9-1.11-1.66-.12-.49-.68-.9-.3-1.46a.81.81,0,0,1,1.34-.16A2.79,2.79,0,0,0,250,198.11Z" style="fill: #d09370"/>
                    <path d="M231.9,200.66a1.05,1.05,0,0,0-.33,1c.13,1-.32,1.05-.86,1-.4-.65-1.08-1.54-.72-2.14S231.26,200.34,231.9,200.66Z" style="fill: #6b7377"/>
                    <path d="M222.07,206.82c.17,0,.3.06.42.23.65.86,1.06.73,1.34-.41.15-.6.15-.6.6-.18-.43.43-.3,1.2-.59,1.71s-.43,1.25-1,1.12-.6-.85-.72-1.44A8.57,8.57,0,0,1,222.07,206.82Z" style="fill: #d09370"/>
                    <path d="M214.86,197.84c-.23.06-.48.06-.6.38-.28.81-.74.68-1.22.4,0-.22.05-.43.06-.64,0-.72,0-1.8.52-1.84S214.73,196.89,214.86,197.84Z" style="fill: #6b7377"/>
                    <path d="M248.72,202.58c.51.28,1.47-.52,1.43,1-.18.77-.81.75-1.21,1.16s-.47-.14-.52-.44A2,2,0,0,1,248.72,202.58Z" style="fill: #6b7377"/>
                    <path d="M225.64,206.47c0-.38,0-.91-.13-1.11-.75-.93.05-.91.38-1.18H226c.6.18,1.37.83,1.27,1.31A1.29,1.29,0,0,1,225.64,206.47Z" style="fill: #6b7377"/>
                    <path d="M244.17,205.79a.78.78,0,0,1,.35-.9c1.07-.72,1.06-.84.11-1.92-.25-.29-.51-.47-.09-.84-.07.41.15.51.38.59a1.51,1.51,0,0,1,.82.65c.3.43.86.84.67,1.43s-.78.57-1.24.47S244.45,205.44,244.17,205.79Z" style="fill: #d09370"/>
                    <path d="M252,203.67c.48.05,1,.12,1.12-.73.08-.38.35-.27.57-.24,0,.75.8,1.69.06,2.17S252.4,204.51,252,203.67Z" style="fill: #6b7377"/>
                    <path d="M244.8,200.53c-.56-.18-1.36.5-1.62-.77a3.52,3.52,0,0,0,.27-.37c.29-.56.79-1.36,1.13-1.06A1.93,1.93,0,0,1,244.8,200.53Z" style="fill: #6b7377"/>
                    <path d="M225.07,201.89c0-.55-.17-.93-.65-.85s-.61-.17-.61-.71c.34-.56.74-1.24,1.29-1.1S225.54,200.9,225.07,201.89Z" style="fill: #6b7377"/>
                    <path d="M216.65,201.38c.31-1.54.26-1.61-1.27-1.68.63-.32,1.17-.75,2-.37s.65.85.26,1.46A1.07,1.07,0,0,1,216.65,201.38Z" style="fill: #6b7377"/>
                    <path d="M230.58,205c-.21.53-.25.94.3,1.15s.44.64.3,1.13a.63.63,0,0,1-.19,0c-.49,0-1.21.7-1.4-.09A1.94,1.94,0,0,1,230.58,205Z" style="fill: #6b7377"/>
                    <path d="M234.9,202.59c-.13,0-.28-.11-.27-.3.13-1.55-.56-1.26-1.25-1,.14-1,.86-1.08,1.36-1.48.35-.28.51.1.56.55A5.82,5.82,0,0,1,234.9,202.59Z" style="fill: #6b7377"/>
                    <path d="M253.68,201c-.63-.64,0-.92.24-1.26s.44-.48.3-.86a.61.61,0,0,0-.7-.34c-.41.05-.91.38-.83-.65.4.48.89.2,1.33.25s.88.15,1,.64-.29,1-.58,1.39S253.67,200.34,253.68,201Z" style="fill: #d09370"/>
                    <path d="M211.89,200.27c-.27.32-.54.64-.24,1.18a.79.79,0,0,1-.28,1.13l-.31-.32c-.33-.34-1.1-.22-.92-1a1.23,1.23,0,0,1,1.36-1C211.63,200.23,211.76,200.26,211.89,200.27Z" style="fill: #6b7377"/>
                    <path d="M252.32,197.05c-.09,0-.22,0-.27.07-.57.78-1.19.47-1.82.17l.06-.24c.41-1.84.47-1.87,1.55-.6Z" style="fill: #d09370"/>
                    <path d="M235.77,205.23c-1-.56-.53-1.4-.26-2.21a2.43,2.43,0,0,0,.25.2c.33.29,1,.19,1,.78A1.5,1.5,0,0,1,235.77,205.23Z" style="fill: #6b7377"/>
                    <path d="M241.35,200.23c-.34.06-.77-.06-.81.65,0,.49-.33.46-.57.52-.36-.52-.88-1.22-.5-1.77s1.06-.24,1.58.11C241.18,199.83,241.25,200.06,241.35,200.23Z" style="fill: #6b7377"/>
                    <path d="M215.89,204.51c-.07-.88-.08-1.7.85-1.7.4.37.78,1,.53,1.48S216.37,204.56,215.89,204.51Z" style="fill: #6b7377"/>
                    <path d="M242.56,206.85c.31-1,.9-.91,1.53-.77v.13c0,.6.07,1.48-.35,1.62S242.8,207.51,242.56,206.85Z" style="fill: #6b7377"/>
                    <path d="M220.43,205c.88,0,1,.73.86,1.67-.43.19-1,.48-1.24-.06S220.22,205.49,220.43,205Z" style="fill: #6b7377"/>
                    <path d="M232.78,207.29c.37-.55.37.17.43.28.44.79.87.85,1.33.06,0,.66,0,1.55-.59,1.5S232.92,208.19,232.78,207.29Z" style="fill: #6b7377"/>
                    <path d="M212.53,203.66c.46,0,.32.5.37.85.09.59.21,1.18.78,1.27-.28.31-.48.95-.93.67s-.26-.9-.28-1.39S212.51,204.12,212.53,203.66Z" style="fill: #d09370"/>
                    <polygon points="216.56 201.78 216.5 201.72 216.53 201.62 216.58 201.69 216.56 201.78" style="fill: #6b7377"/>
                    <path d="M250.08,197.64l0,.26Z" style="fill: #d09370"/>
                    <path d="M243.33,203.06c-.11.63-.35,1.08-.88,1.16s-.88-.34-.9-1,.28-1.28.86-1.29S243.17,202.45,243.33,203.06Z" style="fill: #d09370"/>
                    <path d="M224.21,203.86c-.22.6-.4,1.21-1,1.15s-.85-.61-.87-1.2c0-.75.41-1.21,1-1.16S224.07,203.22,224.21,203.86Z" style="fill: #d09370"/>
                    <path d="M214.9,201.76c0,.8-.34,1.12-.86,1.1s-.95-.49-.92-1.24.39-1.07.92-1.1S214.86,201.06,214.9,201.76Z" style="fill: #d09370"/>
                    <path d="M232.64,203.36c.75.08,1.17.28,1.15,1.08s-.34,1.31-1,1.31-.8-.62-.78-1.24S232.24,203.28,232.64,203.36Z" style="fill: #d09370"/>
                    <path d="M250.68,200.66c-.06-.78.26-1.16.81-1.17s.93.39.94,1.08a1.11,1.11,0,0,1-.94,1.26C250.88,201.9,250.73,201.32,250.68,200.66Z" style="fill: #d09370"/>
                  </g>
                  <g>
                    <path d="M218.44,159.22a1.06,1.06,0,0,1,.19,1.19,1.41,1.41,0,0,0,.22,1.93c.13.17.29.57.23.69-.63,1.26.1,2.05.57,2.89s-.47,1.16-.12,1.8,1.32.75,1,1.87c-.23.74-.2,1,.38,1.34.75.48.3,1.7.54,2.33s1.32,1,1.12,2.07.21.83.61.85h0c.51-.16.84.64.79,1.34s.25.88.66.86c.57,0,.88.31.93,1s.36,1,.87.93h0c.83,0,1.31.52,1.37,1.71.67-.35,1.34-.71,1.85.3.29.57.58.59,1,.28A.84.84,0,0,1,232,183c.33.63.65.49,1,.11s.87-.53,1.29,0,.78.47,1.18,0,.84-.52,1.29,0c.21.24.34.36.62-.16.38-.71.94-1.45,1.84-.65.14.13.53-1.72,1.5-1.52a1,1,0,0,0,.29,0c.22,0,.39,0,.38-.42-.06-1.21.37-1.69,1.29-1.95.69-.19.33-2,1.39-2.1.38,0,.49-.24.43-.76-.12-1.1.53-1.41,1.06-2s-.15-1.86.63-2.49a1.13,1.13,0,0,1,.35-.2.32.32,0,0,0,.21-.46c-.63-1.11,0-1.85.42-2.65.39-1,.28-2.38,1-3.23,0,0-.06-.15-.07-.23-.21-1.79.94-3.3.59-5.12,0,0,0-.07.06-.1a.93.93,0,0,0,.37-1l-2.4-.42a7.9,7.9,0,0,0-.11,1.76c-.8.39-.39,1.21-.38,1.89,0,.19,0,.48-.12.56a1.46,1.46,0,0,0-.54,1.61.94.94,0,0,1-.46,1c-.4.15-.35.42-.29.83.12.81,0,1.5-.72,1.69-.28.08-.25.28-.14.52a1.24,1.24,0,0,1,0,.87c-.18.69-.72.66-1,1s.09,1.18-.36,1.65a.71.71,0,0,1-.65.27c-.32,0-.38.13-.38.52,0,.88-.46,1.26-1.07,1.24-.27,0-.31,0-.36.38-.17,1.15-.45,1.42-1.33,1.28-.28,0-.4-.09-.53.37-.24.85-.79,1-1.41.53-.19-.14-.27-.26-.48.15-.3.58-.82,1.16-1.41.4-.34-.45-.6-.28-.9.05s-.54.51-.82.12c-.43-.59-.84-.74-1.37-.22a.43.43,0,0,1-.65-.13c-.33-.59-.75-.5-1.17-.51-.55.31-1,.13-1.24-.64-.13-.46-.25-.41-.53-.37-.87.14-1.16-.13-1.33-1.28,0-.35-.08-.39-.36-.38-.61,0-1-.36-1.06-1.24,0-.38-.07-.57-.39-.52a.7.7,0,0,1-.64-.26c-.46-.48-.15-1.43-.37-1.66s-.84-.3-1-1a1.24,1.24,0,0,1,0-.87c.11-.24.14-.44-.14-.51-.74-.2-.84-.89-.72-1.7.12-.35.07-.46-.16-.59a1.41,1.41,0,0,1-.57-1.73c.06-.26.12-.52-.18-.64s-.49-.63-.54-1.11c.19-.6.48-1.22-.24-1.6a.54.54,0,0,1-.15-.34c-.05-1,.34-.89,0-1.85l.84.51a.89.89,0,0,1,.11-.59l0-.05c-1.1.13-2.14.29-3.12.45A1.62,1.62,0,0,0,218.44,159.22Z" style="fill: none"/>
                    <path d="M244.11,159.17a1,1,0,0,1-.8.28c-.39,0-.47.15-.48.56a1.2,1.2,0,0,1-1.31,1.34c-.34,0-.39,0-.45.41-.21,1.24-.56,1.53-1.65,1.38-.34,0-.49-.1-.65.4-.31.92-1,1.07-1.75.57-.24-.16-.34-.27-.59.16-.37.62-1,1.25-1.74.43-.43-.48-.75-.3-1.12.05s-.67.55-1,.13c-.52-.63-1-.79-1.69-.23a.59.59,0,0,1-.81-.14c-.41-.64-.93-.54-1.44-.55a1,1,0,0,1-1.53-.69c-.16-.49-.31-.44-.66-.4-1.08.15-1.44-.13-1.64-1.38-.07-.37-.11-.42-.45-.41a1.2,1.2,0,0,1-1.32-1.34c0-.41-.08-.61-.48-.55a.84.84,0,0,1-.44-.07,3.19,3.19,0,0,0,.62,1.48c.31.55-.36.9-.09,1.4s1,.58.75,1.45c-.18.58-.16.77.3,1.05s.23,1.32.42,1.81,1,.76.87,1.61.16.65.48.67h0c.39-.13.65.49.61,1s.19.68.51.67.69.24.73.8.27.76.68.73h0c.65,0,1,.4,1.06,1.32.53-.27,1.05-.54,1.45.24.22.44.45.46.8.22a.66.66,0,0,1,1,.29c.25.49.5.39.75.09s.68-.42,1,0,.61.36.92,0,.66-.4,1,0c.17.19.27.28.49-.12.3-.56.73-1.14,1.43-.51.11.1.42-1.34,1.17-1.18a.86.86,0,0,0,.23,0c.16,0,.3,0,.29-.33-.05-.94.29-1.31,1-1.51.54-.15.26-1.59,1.08-1.64.3,0,.38-.18.34-.59-.1-.85.41-1.1.82-1.57s-.11-1.45.49-1.94a.85.85,0,0,1,.28-.15.26.26,0,0,0,.16-.37c-.49-.86,0-1.43.32-2.05.31-.82.22-1.85.8-2.52,0,0,0-.11,0-.18a4,4,0,0,1,.26-1.94l-.49-.06,0,0C244.29,157.63,244.67,158.66,244.11,159.17Z" style="fill: none"/>
                    <path d="M223.7,157.66c0,.61.23.74.63.72s.85.26.9.87.34.82.84.79h0c.79,0,1.26.44,1.31,1.43.65-.29,1.29-.59,1.79.26.28.47.56.5,1,.23a.87.87,0,0,1,1.28.32c.32.53.62.42.93.09a.74.74,0,0,1,1.24,0c.4.45.75.4,1.14,0a.75.75,0,0,1,1.24,0c.2.21.33.31.6-.13.37-.59.9-1.22,1.77-.54.14.11.51-1.45,1.44-1.28a1.43,1.43,0,0,0,.29,0c.2,0,.37,0,.36-.36a1.36,1.36,0,0,1,1.24-1.63c.47-.11.44-.9.74-1.38a89.36,89.36,0,0,0-18.92-.27A1.51,1.51,0,0,1,223.7,157.66Z" style="fill: none"/>
                    <path d="M215.15,159.62c-.41.62-.26.95.15,1.43a1.67,1.67,0,0,1,.18,2.09c-.23.37-.18.58.19.85a1.94,1.94,0,0,1,.69,2,1.08,1.08,0,0,0,.13,1.57,1.73,1.73,0,0,1,.32,2c-.2.48-.17.84.16,1.06a1.75,1.75,0,0,1,.54,2.11c-.27.76,0,.83.36,1a1.61,1.61,0,0,1,.59,2.22c-.25.57-.08.83.2.91.85.24.84,1.09.7,1.82a1.24,1.24,0,0,0,.52,1.48c.76.6.34,1.72.56,2.47s1.32,1,1.2,2.08c-.09.88.14,1,.63,1.1.16,0,.39.13.43.28.38,1.25,1.28,1.87,1.84,2.77a4,4,0,0,0,2.18,1.89c.13,0,.24.28.35.42,0,.54,0,1,.67.77.84-.3,1.49.13,1.77,1.29.68-.32,1.35-.84,2.07-.17a1,1,0,0,1,.24.4c.15.5.41.42.62.15.75-1,1.4-.63,2,.21.21.29.22.39.49,0,.49-.72,1.13-1.23,1.85-.31.23.3.37.25.58-.16.34-.7.9-1.44,1.53-1s.67.21.82-.45a2.85,2.85,0,0,1,.47-.8c.77-.18,1.61-.18,1.74-1.59,0-.31.18-.58.44-.59.79,0,1.28-.48,1.28-1.62,0-.11.1-.22.13-.34.24-.91,1.22-.31,1.34-.92s-.21-1.46.31-2a2.28,2.28,0,0,0,.94-2.32,1.28,1.28,0,0,1,.73-1.25c.5-.19.36-.49.29-.92-.17-1.06-.06-2,.86-2.38.34-.14.3-.38.18-.69-.54-1.39.7-1.89.8-2.72.14-1-.34-2.23.68-2.87.44-.28.33-.53.11-.87.13-.52-.12-1-.09-1.5.13-.33.24-.7.56-.81.8-.27.64-.85.26-1.48.11-1.63,1.26-2.91.92-4.71,0-.15.3-.42.47-.61a.53.53,0,0,0,.07-.71,2.66,2.66,0,0,1-.23-1.56l-1.32-.28a1.24,1.24,0,0,0,.3,1.24.16.16,0,0,1,0,.12,16.93,16.93,0,0,0-.64,4.67c-1,.51-.5,1.56-.49,2.43,0,.25,0,.62-.16.72a1.9,1.9,0,0,0-.69,2.08,1.21,1.21,0,0,1-.58,1.25c-.52.2-.46.55-.38,1.06.15,1,0,1.94-.92,2.19-.36.09-.32.35-.19.65a1.63,1.63,0,0,1,0,1.13c-.23.88-.92.85-1.32,1.27s.12,1.52-.47,2.13a1,1,0,0,1-.83.34c-.41-.06-.48.17-.49.66,0,1.13-.59,1.63-1.37,1.6-.36,0-.4,0-.47.49-.21,1.48-.58,1.82-1.7,1.65-.36-.06-.52-.12-.69.47-.31,1.09-1,1.27-1.81.68-.25-.19-.35-.33-.62.19-.38.74-1,1.49-1.8.51-.45-.57-.78-.35-1.17.06s-.69.66-1.05.16c-.55-.75-1.08-.95-1.76-.28a.56.56,0,0,1-.84-.16c-.42-.76-1-.65-1.5-.66-.7.4-1.3.17-1.58-.82-.18-.59-.33-.53-.69-.47-1.12.17-1.49-.17-1.71-1.65-.06-.45-.11-.51-.46-.49-.79,0-1.34-.47-1.37-1.6,0-.49-.09-.73-.5-.66a1,1,0,0,1-.83-.34c-.58-.61-.19-1.84-.46-2.13s-1.09-.39-1.32-1.27a1.63,1.63,0,0,1,0-1.13c.13-.3.17-.56-.19-.65-1-.25-1.07-1.15-.92-2.19.16-.44.09-.59-.21-.76a1.8,1.8,0,0,1-.73-2.21c.07-.34.16-.67-.23-.83s-.64-.8-.7-1.42c.25-.78.62-1.57-.3-2.06a.65.65,0,0,1-.2-.44c-.06-1.32.22-2.72-.62-3.84a1.25,1.25,0,0,1,.16-.72c.54-.84.07-1.09-.42-1.33,0,0,0,0,0-.06l-.55.12,0,0A2.27,2.27,0,0,1,215.15,159.62Z" style="fill: none"/>
                    <path d="M252.22,160.22a.53.53,0,0,1-.07.71c-.17.19-.5.46-.47.61.34,1.8-.81,3.08-.92,4.71.38.63.54,1.21-.26,1.48-.32.11-.43.48-.56.81,0,.5.22,1,.09,1.5.22.34.33.59-.11.87-1,.64-.54,1.83-.68,2.87-.1.83-1.34,1.33-.8,2.72.12.31.16.55-.18.69-.92.38-1,1.32-.86,2.38.07.43.21.73-.29.92a1.28,1.28,0,0,0-.73,1.25,2.28,2.28,0,0,1-.94,2.32c-.52.55-.19,1.37-.31,2s-1.1,0-1.34.92c0,.12-.13.23-.13.34,0,1.14-.49,1.57-1.28,1.62-.26,0-.41.28-.44.59-.13,1.41-1,1.41-1.74,1.59a2.85,2.85,0,0,0-.47.8c-.15.66-.2.92-.82.45s-1.19.25-1.53,1c-.21.41-.35.46-.58.16-.72-.92-1.36-.41-1.85.31-.27.4-.28.3-.49,0-.62-.84-1.27-1.22-2-.21-.21.27-.47.35-.62-.15a1,1,0,0,0-.24-.4c-.72-.67-1.39-.15-2.07.17-.28-1.16-.93-1.59-1.77-1.29-.64.23-.63-.23-.67-.77-.11-.14-.22-.37-.35-.42a4,4,0,0,1-2.18-1.89c-.56-.9-1.46-1.52-1.84-2.77,0-.15-.27-.25-.43-.28-.49-.1-.72-.22-.63-1.1.12-1.08-1-1.4-1.2-2.08s.2-1.87-.56-2.47a1.24,1.24,0,0,1-.52-1.48c.14-.73.15-1.58-.7-1.82-.28-.08-.45-.34-.2-.91a1.61,1.61,0,0,0-.59-2.22c-.37-.21-.63-.28-.36-1a1.75,1.75,0,0,0-.54-2.11c-.33-.22-.36-.58-.16-1.06a1.73,1.73,0,0,0-.32-2,1.08,1.08,0,0,1-.13-1.57,1.94,1.94,0,0,0-.69-2c-.37-.27-.42-.48-.19-.85a1.67,1.67,0,0,0-.18-2.09c-.41-.48-.56-.81-.15-1.43a2.27,2.27,0,0,0,.07-1.51l0,0c-.94.2-1.81.41-2.6.61,0,.16,0,.32-.07.48,1.15,1.15.33,2.65.41,4,.48.6,1.16,1,.69,2.25-.3.81.65,1.32.81,1.94s-.57,1.6-.1,2.25a2.89,2.89,0,0,1,.57,2.6c-.16.81.71,1.24,1,1.84s-.33,1.63.3,2.33c.43.48.9.85.48,1.82a1.42,1.42,0,0,0,.49,1.43,1.23,1.23,0,0,1,.51,1.77,1.56,1.56,0,0,0,.72,1.78c.5.28.66.4.47,1.16-.24.91.32,2,1.06,2.08s.59.43.55,1,.05,1.44.62,1.59c.89.23,1.3.88,1.4,2a1.09,1.09,0,0,0,.15.33,3.13,3.13,0,0,0,1.37.57c.56.05.46,1,.7,1.57.18.1.36.28.54.29.81,0,1.56-.08,2,1.25.19.57,1,.53,1.55.16.25-.16.44-.38.7.16.47,1,1.3,1.25,2,.55.44-.42.55-.22.81.19.57.88,1.24.89,1.87.16.34-.39.54-.38.88,0a1.15,1.15,0,0,0,2-.3c.22-.41.19-.83.7-.26s1.49.31,1.92-.65c.23-.53.36-.87.93-.59.72.37,1.19-.38,1.64-1,0-.75,0-1.34.79-1.18.63.13,1-.49,1.29-1.12,0-.74-.12-1.39.77-1.38.63,0,1.12-.69,1-1.6a1.12,1.12,0,0,1,.73-1.34,1.74,1.74,0,0,0,.88-2.12c-.09-.42,0-.53.28-.75a2.16,2.16,0,0,0,.92-2.52c-.27-1.17,1.24-1.33,1-2.6a1.43,1.43,0,0,0-.07-.38.69.69,0,0,1,.28-1.08,1.87,1.87,0,0,0,.67-2.19c-.12-.59-.18-.88.32-1.19a1.42,1.42,0,0,0,.56-1.62,1.71,1.71,0,0,1,.44-2.13c.73-.84.17-1.73-.06-2.6a1.62,1.62,0,0,0,1.22-1.94,1.93,1.93,0,0,1,.53-1.82,3.93,3.93,0,0,0-.06-2.62.38.38,0,0,1,.09-.54,2.85,2.85,0,0,0,.8-1.91c-.88-.21-2-.27-2.85-.46A3.66,3.66,0,0,0,252.22,160.22Z" style="fill: #ba5154"/>
                    <path d="M216.18,159.35a1.25,1.25,0,0,0-.16.72c.84,1.12.56,2.52.62,3.84a.65.65,0,0,0,.2.44c.92.49.55,1.28.3,2.06.06.62.18,1.22.7,1.42s.3.49.23.83a1.8,1.8,0,0,0,.73,2.21c.3.17.37.32.21.76-.15,1,0,1.94.92,2.19.36.09.32.35.19.65a1.63,1.63,0,0,0,0,1.13c.23.88.92.85,1.32,1.27s-.12,1.52.46,2.13a1,1,0,0,0,.83.34c.41-.07.49.17.5.66,0,1.13.58,1.63,1.37,1.6.35,0,.4,0,.46.49.22,1.48.59,1.82,1.71,1.65.36-.06.51-.12.69.47.28,1,.88,1.22,1.58.82.54,0,1.08-.1,1.5.66a.56.56,0,0,0,.84.16c.68-.67,1.21-.47,1.76.28.36.5.74.18,1.05-.16s.72-.63,1.17-.06c.75,1,1.42.23,1.8-.51.27-.52.37-.38.62-.19.8.59,1.5.41,1.81-.68.17-.59.33-.53.69-.47,1.12.17,1.49-.17,1.7-1.65.07-.45.11-.51.47-.49.78,0,1.34-.47,1.37-1.6,0-.49.08-.72.49-.66a1,1,0,0,0,.83-.34c.59-.61.19-1.84.47-2.13s1.09-.39,1.32-1.27a1.63,1.63,0,0,0,0-1.13c-.13-.3-.17-.56.19-.65.95-.25,1.07-1.15.92-2.19-.08-.51-.14-.86.38-1.06a1.21,1.21,0,0,0,.58-1.25,1.9,1.9,0,0,1,.69-2.08c.12-.1.11-.47.16-.72,0-.87-.54-1.92.49-2.43a16.93,16.93,0,0,1,.64-4.67.16.16,0,0,0,0-.12,1.56,1.56,0,0,1-.06-1.49c-.53-.1-1.29.06-1.81,0a.93.93,0,0,1-.37,1s-.07.08-.06.1c.35,1.82-.8,3.33-.59,5.12,0,.08.08.21.07.23-.75.85-.64,2.18-1,3.23-.42.8-1.05,1.54-.42,2.65a.32.32,0,0,1-.21.46,1.13,1.13,0,0,0-.35.2c-.78.63-.23,2-.63,2.49s-1.18.92-1.06,2c.06.52,0,.74-.43.76-1.06.06-.7,1.91-1.39,2.1-.92.26-1.35.74-1.29,1.95,0,.38-.16.43-.38.42a1,1,0,0,1-.29,0c-1-.2-1.36,1.65-1.5,1.52-.9-.8-1.46-.06-1.84.65-.28.52-.41.4-.62.16-.45-.53-.87-.53-1.29,0s-.77.55-1.18,0-.84-.54-1.29,0-.64.52-1-.11a.84.84,0,0,0-1.32-.38c-.45.31-.74.29-1-.28-.51-1-1.18-.65-1.85-.3-.06-1.19-.54-1.71-1.37-1.71h0c-.51,0-.81-.21-.87-.93s-.36-1.07-.93-1c-.41,0-.71-.14-.66-.86s-.28-1.5-.79-1.34h0c-.4,0-.79.16-.61-.85s-.85-1.39-1.12-2.07.21-1.85-.54-2.33c-.58-.36-.61-.6-.38-1.34.35-1.12-.57-1.31-1-1.87s.51-1.1.12-1.8-1.2-1.63-.57-2.89c.06-.12-.1-.52-.23-.69a1.41,1.41,0,0,1-.22-1.93,1.06,1.06,0,0,0-.19-1.19,1.62,1.62,0,0,1-.25-1.71c-.85.14-1.67.3-2.44.45,0,0,0,0,0,.06C216.25,158.26,216.72,158.51,216.18,159.35Z" style="fill: #ba5154"/>
                    <path d="M221.86,157.79l1.09.65a1.56,1.56,0,0,0-.18.77.84.84,0,0,0,.44.07c.4-.06.47.14.48.55a1.21,1.21,0,0,0,1.32,1.34c.34,0,.39,0,.45.41.21,1.25.56,1.53,1.64,1.38.35,0,.5-.09.66.4a1,1,0,0,0,1.53.69c.52,0,1-.09,1.45.55a.58.58,0,0,0,.8.14c.66-.56,1.17-.4,1.7.23.34.42.71.15,1-.13s.69-.53,1.12-.05c.73.82,1.37.19,1.74-.43.26-.43.36-.32.59-.16.78.5,1.45.35,1.75-.57.16-.5.31-.45.66-.4,1.08.15,1.43-.14,1.64-1.38.06-.37.11-.42.45-.41a1.21,1.21,0,0,0,1.32-1.34c0-.41.08-.61.48-.56a1,1,0,0,0,.79-.28c.57-.51.19-1.54.45-1.79l0,0c-.73-.11-1.46-.2-2.17-.28-.29.48-.27,1.27-.74,1.38a1.37,1.37,0,0,0-1.24,1.63c0,.32-.15.36-.36.36a1.43,1.43,0,0,1-.29,0c-.92-.17-1.3,1.39-1.44,1.28-.87-.68-1.4,0-1.77.54-.27.44-.4.34-.6.13a.75.75,0,0,0-1.24,0c-.38.42-.74.47-1.14,0a.74.74,0,0,0-1.24,0c-.31.33-.61.44-.93-.09a.86.86,0,0,0-1.27-.32c-.43.27-.71.24-1-.23-.5-.85-1.14-.55-1.79-.26,0-1-.52-1.43-1.31-1.43h0c-.5,0-.79-.18-.84-.79s-.35-.89-.9-.87c-.4,0-.68-.11-.63-.72a1.88,1.88,0,0,0-.25-1c-.76.07-1.44.11-2.15.2,0,0-.1.24-.1.24S221.83,157.53,221.86,157.79Z" style="fill: #9c3126"/>
                    <path d="M246.59,159.43a7.9,7.9,0,0,1,.11-1.76l-1.61-.25a4,4,0,0,0-.26,1.94c0,.07.07.17,0,.18-.58.67-.49,1.7-.8,2.52-.32.62-.81,1.19-.32,2.05a.26.26,0,0,1-.16.37.85.85,0,0,0-.28.15c-.6.49-.17,1.58-.49,1.94s-.92.72-.82,1.57c0,.41,0,.57-.34.59-.82.05-.54,1.49-1.08,1.64-.71.2-1.05.57-1,1.51,0,.3-.13.33-.29.33a.86.86,0,0,1-.23,0c-.75-.16-1.06,1.28-1.17,1.18-.7-.63-1.13-.05-1.43.51-.22.4-.32.31-.49.12-.34-.41-.67-.42-1,0s-.6.43-.92,0-.65-.43-1,0-.5.4-.75-.09a.66.66,0,0,0-1-.29c-.35.24-.58.22-.8-.22-.4-.78-.92-.51-1.45-.24,0-.92-.41-1.33-1.06-1.32h0c-.41,0-.64-.16-.68-.73s-.28-.83-.73-.8-.55-.11-.51-.67-.22-1.17-.61-1h0c-.32,0-.62.12-.48-.67s-.66-1.08-.87-1.61.16-1.44-.42-1.81-.48-.47-.3-1.05c.27-.87-.44-1-.75-1.45s.4-.85.09-1.4a3.19,3.19,0,0,1-.62-1.48c.65-1.53-.11-2.16-.11-2.16l-1.65.23c.38,1,0,.82,0,1.85a.54.54,0,0,0,.15.34c.72.38.43,1,.24,1.6.05.48.14,1,.54,1.11s.24.38.18.64a1.41,1.41,0,0,0,.57,1.73c.23.13.28.24.16.59-.12.81,0,1.5.72,1.7.28.07.25.27.14.51a1.24,1.24,0,0,0,0,.87c.18.69.71.66,1,1s-.09,1.18.37,1.66a.7.7,0,0,0,.64.26c.32,0,.38.14.39.52,0,.88.45,1.26,1.06,1.24.28,0,.31,0,.36.38.17,1.15.46,1.42,1.33,1.28.28,0,.4-.09.53.37.22.77.69.95,1.24.64.42,0,.84-.08,1.17.51a.43.43,0,0,0,.65.13c.53-.52.94-.37,1.37.22.28.39.57.14.82-.12s.56-.5.9-.05c.59.76,1.11.18,1.41-.4.21-.41.29-.29.48-.15.62.46,1.17.32,1.41-.53.13-.46.25-.41.53-.37.88.14,1.16-.13,1.33-1.28,0-.35.09-.39.36-.38.61,0,1-.36,1.07-1.24,0-.39.06-.57.38-.52a.71.71,0,0,0,.65-.27c.45-.47.14-1.42.36-1.65s.85-.3,1-1a1.24,1.24,0,0,0,0-.87c-.11-.24-.14-.44.14-.52.74-.19.84-.88.72-1.69-.06-.41-.11-.68.29-.83a.94.94,0,0,0,.46-1,1.46,1.46,0,0,1,.54-1.61c.09-.08.08-.37.12-.56C246.2,160.64,245.79,159.82,246.59,159.43Z" style="fill: #ba5154"/>
                  </g>
                </g>
              </g>
            </g>
            <g>
              <g>
                <g style="opacity: 0.7000000000000001;mix-blend-mode: multiply">
                  <path d="M231.8,140c-7.16,0-13.46-3.62-16.07-9.21a1.4,1.4,0,1,1,2.53-1.18c2.12,4.54,7.56,7.59,13.54,7.59s11.42-3.05,13.54-7.59a1.39,1.39,0,0,1,1.85-.68,1.41,1.41,0,0,1,.68,1.86C245.26,136.42,239,140,231.8,140Z" style="fill: #c2ada0"/>
                </g>
                <g>
                  <path d="M213.44,120.35h0a4.5,4.5,0,0,1-4.48-4.49V112.6a4.5,4.5,0,0,1,4.48-4.48h0a4.5,4.5,0,0,1,4.49,4.48v3.26A4.5,4.5,0,0,1,213.44,120.35Z" style="fill: #645448"/>
                  <path d="M213.73,112.1a1.52,1.52,0,1,1-1.51-1.52A1.52,1.52,0,0,1,213.73,112.1Z" style="fill: #fff"/>
                </g>
                <g>
                  <path d="M250.71,120.35h0a4.49,4.49,0,0,1-4.48-4.49V112.6a4.49,4.49,0,0,1,4.48-4.48h0a4.5,4.5,0,0,1,4.48,4.48v3.26A4.5,4.5,0,0,1,250.71,120.35Z" style="fill: #645448"/>
                  <path d="M251,112.1a1.52,1.52,0,1,1-1.52-1.52A1.52,1.52,0,0,1,251,112.1Z" style="fill: #fff"/>
                </g>
              </g>
              <rect x="207.62" y="101.91" width="11.64" height="1.86" style="fill: #231f20"/>
              <rect x="244.89" y="101.91" width="11.64" height="1.86" style="fill: #231f20"/>
            </g>
            <g>
              <path d="M233.41,71.67c-1.65.17-3.31.17-5,.38-2.44.31-4.86.73-7.29,1a32.64,32.64,0,0,1-5,.54c-1.52,0-3.05,0-4.57,0a21.89,21.89,0,0,1-9.09-1.86,16.81,16.81,0,0,1-6-4.64,31.7,31.7,0,0,0-3.16-3.49,34.62,34.62,0,0,1-3.59-3.26,10.64,10.64,0,0,0,.85,2,29.24,29.24,0,0,0,7.12,9.42,36.28,36.28,0,0,0,5.57,4C206.06,77,209,77.17,212,77.25c4.72.11,9.42-.29,14.12-.52a128.62,128.62,0,0,1,13.6-.29c5.26.3,10.52.54,15.78.77a49.2,49.2,0,0,0,6.31-.15,8.47,8.47,0,0,0,3.66-1.26,2.34,2.34,0,0,1,.31-.32A32.6,32.6,0,0,0,273,69.39a27.4,27.4,0,0,0,4.81-7.34c-.42.18-.62.58-.89.9-2.61,3.18-5.41,6.17-9.11,8.13a17.56,17.56,0,0,1-7.2,1.94c-3,.18-5.9-.36-8.86-.35a12.9,12.9,0,0,1-2.56-.14c-2.66-.5-5.38-.23-8-.7" style="fill: #e4d2be"/>
              <path d="M261.27,61.32a.93.93,0,0,1-1.14-.86c-.32-1.61-1.16-3.05-1.62-4.62,2.63-.11,5.24.3,7.86.37,1.9,0,3.77.32,5.65.53a17.88,17.88,0,0,1,5.85,1.35c.55.26,1.16.55.9,1.38a29.43,29.43,0,0,1-3.95.81c-1.72.2-3.44.45-5.18.58C266.85,61.06,264.07,61.33,261.27,61.32Z" style="fill: #aab0b7"/>
              <path d="M208,61.13l-3.66-.28c-3,0-5.88-.46-8.83-.68-1.74-.13-3.46-.58-5.2-.83a1.48,1.48,0,0,1-1-.31c.13-1,1-1.13,1.68-1.37a25.56,25.56,0,0,1,6.09-1.12c4.08-.43,8.16-.71,12.26-.74l.46,0c-.42,1.45-.83,2.9-1.27,4.35-.11.35,0,.85-.55,1" style="fill: #aab0b7"/>
              <g>
                <polygon points="212.11 51.35 212.11 51.35 212.11 51.35 212.11 51.35" style="fill: #e4d2be"/>
                <path d="M214.78,48.71a35.24,35.24,0,0,1,5.82-3.45,33.68,33.68,0,0,1,6.28-2.13,34.65,34.65,0,0,1,13.42-.66,24.33,24.33,0,0,1,8.38,2.88,25.33,25.33,0,0,1,6.79,5.93c.16.19.3.4.45.6l1.68,2.56h0l.13.16c.31.38.37.92.78,1.24.46,1.57,1.3,3,1.62,4.62a.93.93,0,0,0,1.14.86.38.38,0,0,1-.55.26,7.52,7.52,0,0,0-2.32,0c-3.42.09-6.84.16-10.25.17-8.22,0-16.43.06-24.65,0-2.37,0-4.76,0-7.13-.16-2.22-.19-4.44-.21-6.66-.3a5.66,5.66,0,0,1-1.74-.13c.54-.11.44-.61.55-1,.43-1.45.85-2.9,1.27-4.35a18.23,18.23,0,0,1,1.34-2.65A17.73,17.73,0,0,1,214.78,48.71Z" style="fill: #e4d2be"/>
              </g>
              <path d="M208,61.13a5.66,5.66,0,0,0,1.74.13c2.22.09,4.44.11,6.66.3,2.37.2,4.76.14,7.13.16,8.22.09,16.43.05,24.65,0,3.41,0,6.83-.08,10.25-.17a15,15,0,0,1,2.12-.08,1.23,1.23,0,0,0,.75-.18c2.8,0,5.58-.26,8.37-.46,1.74-.13,3.46-.38,5.18-.58a29.43,29.43,0,0,0,3.95-.81,10.39,10.39,0,0,1-.95,2.58c-.42.18-.62.58-.89.9-2.61,3.18-5.41,6.17-9.11,8.13a17.56,17.56,0,0,1-7.2,1.94c-3,.18-5.9-.36-8.86-.35a12.9,12.9,0,0,1-2.56-.14c-2.66-.5-5.38-.23-8-.7l-7.73-.17s-3.32.18-5,.39c-2.44.31-4.86.73-7.29,1a32.64,32.64,0,0,1-5,.54c-1.52,0-3.05,0-4.57,0a21.89,21.89,0,0,1-9.09-1.86,16.81,16.81,0,0,1-6-4.64,31.7,31.7,0,0,0-3.16-3.49,34.62,34.62,0,0,1-3.59-3.26c-.15-.45-.54-.82-.44-1.35a3.77,3.77,0,0,0,1,.31c1.74.25,3.46.7,5.2.83,3,.22,5.87.71,8.83.68C204.31,60.85,207.61,61.09,208,61.13Z" style="fill: #f3e7d8"/>
            </g>
          </g>
          <g>
            <g>
              <g>
                <rect x="129.99" y="203.32" width="44.79" height="68.65" style="fill: #efc698"/>
                <rect x="129.99" y="240.32" width="44.79" height="52.58" rx="21.84" ry="21.84" style="fill: #efc698"/>
              </g>
              <path d="M165.29,386.88a7.79,7.79,0,0,1-7.79-7.79l-3.56-99.9c0-4.3,7.05-7.95,11.35-7.95s9.43-5.11,9.43-.81l-1.64,108.66A7.79,7.79,0,0,1,165.29,386.88Z" style="fill: #efc698"/>
              <path d="M139.47,386.88a7.79,7.79,0,0,1-7.79-7.79l-1.76-108.82c0-4.3,5.25,1,9.55,1s11.23,3.81,11.23,8.12l-3.44,99.73A7.79,7.79,0,0,1,139.47,386.88Z" style="fill: #efc698"/>
              <path d="M116.67,301.67a5.83,5.83,0,0,1-5.84-5.75c0-2.26-.8-55.51,3.52-76.73,4.27-20.92,28.44-22.3,29.47-22.35a5.84,5.84,0,0,1,.57,11.67c-.73,0-16.15,1.06-18.59,13-4.07,20-3.3,73.67-3.29,74.21a5.83,5.83,0,0,1-5.75,5.93Z" style="fill: #efc698"/>
              <g>
                <path d="M149.46,330.56l1.24-37.21c.37,0,.74,0,1.12,0h1.11c.35,0,.69,0,1,0l1.28,37.2h19.08l.83-57.36c0-.43,0-.87.07-1.31H129.46l.92,58.67Z" style="fill: #5b493a"/>
                <path d="M171.44,198.5A42.27,42.27,0,0,0,161,196.35c-1.44-.06-4.57-.1-8.35-.1s-7.26,0-8.82.1c-1,.05-25.58,1.48-29.92,22.75A125.72,125.72,0,0,0,112.12,232h12.7c.4-4,.88-7.51,1.46-10.34a12.9,12.9,0,0,1,3.22-6.3v57.13h45.76V212.05C176.91,213.85,179,201.09,171.44,198.5Z" style="fill: #f8d62a"/>
              </g>
              <path d="M152.38,210.14h0a10.87,10.87,0,0,1-10.83-10.84V184.45a10.87,10.87,0,0,1,10.83-10.83h0a10.87,10.87,0,0,1,10.84,10.83V199.3A10.87,10.87,0,0,1,152.38,210.14Z" style="fill: #efc698"/>
              <g>
                <path d="M197.83,154.31a8.44,8.44,0,1,1-8.44-8.44A8.44,8.44,0,0,1,197.83,154.31Z" style="fill: #f0cda7"/>
                <path d="M123.82,154.31a8.44,8.44,0,1,1-8.44-8.44A8.44,8.44,0,0,1,123.82,154.31Z" style="fill: #f0cda7"/>
              </g>
              <path d="M152.38,191.31h0a37,37,0,0,1-36.9-36.9V135.7c0-20.29,16.61-29.11,36.9-29.11h0c20.3,0,36.9,8.82,36.9,29.11v18.71A37,37,0,0,1,152.38,191.31Z" style="fill: #f0cda7"/>
              <g>
                <path d="M196,115.78c-1.54-1.72-3.89-1.14-6.16.17,2.72-3.57,3.49-7.24.5-8.14-3.22-1-6.25,10.54-6.92,13.28l-.3.07.24.17v.06l-.14.15.1,0,0,.13.16-.1.43.07a15.85,15.85,0,0,0,2.57,1.3c4.44,1.77,6.21,6.58,8.77,2.93,1.37-2-1-3.78-4-4.7C195.32,120.18,198.1,118.13,196,115.78Z" style="fill: #4a2f16"/>
                <g>
                  <path d="M115,135.7a29,29,0,0,1,3-13.37l.58-1.13.32,1.23a31.35,31.35,0,0,1,.89,4.64c.55,4.73,1,14.89-1.18,19.42a5.46,5.46,0,0,1-2.95,3l-.65.23Z" style="fill: #4a2f16"/>
                  <path d="M189.12,149.5a5.48,5.48,0,0,1-3-3C184,142,184.44,131.8,185,127.07a33.14,33.14,0,0,1,.9-4.64l.32-1.23.58,1.13a29.14,29.14,0,0,1,3,13.37v14Z" style="fill: #4a2f16"/>
                </g>
                <path d="M187.07,121.81s-12.78,9.37-35.91,10.34-41.6-5.34-42.36-11.92c-.93-8.12,8.25-4.48,8.25-4.48s-8-6.23-3.08-11c4-4,9.48,3.65,9.48,3.65s-3.5-8.32,1.91-8.72c4.91-.37,6.33,6.69,10.1,4.62s13.63-10.59,28.85-4.87S187.07,121.81,187.07,121.81Z" style="fill: #4a2f16"/>
              </g>
            </g>
            <g>
              <g>
                <g style="opacity: 0.7000000000000001;mix-blend-mode: multiply">
                  <path d="M151,179.7a19.12,19.12,0,0,1-11.69-3.83,1.4,1.4,0,1,1,1.71-2.21,16.3,16.3,0,0,0,10,3.25,15.36,15.36,0,0,0,12.33-5.6,1.4,1.4,0,0,1,2.23,1.69C162.33,177.2,156.89,179.7,151,179.7Z" style="fill: #c2ada0"/>
                </g>
                <g>
                  <path d="M132.61,160h0a4.5,4.5,0,0,1-4.49-4.48v-3.26a4.5,4.5,0,0,1,4.49-4.49h0a4.5,4.5,0,0,1,4.48,4.49v3.26A4.5,4.5,0,0,1,132.61,160Z" style="fill: #645448"/>
                  <path d="M132.89,151.76a1.51,1.51,0,1,1-1.51-1.51A1.51,1.51,0,0,1,132.89,151.76Z" style="fill: #fff"/>
                </g>
                <g>
                  <path d="M169.87,160h0a4.5,4.5,0,0,1-4.48-4.48v-3.26a4.5,4.5,0,0,1,4.48-4.49h0a4.5,4.5,0,0,1,4.49,4.49v3.26A4.5,4.5,0,0,1,169.87,160Z" style="fill: #645448"/>
                  <path d="M170.16,151.76a1.52,1.52,0,1,1-1.51-1.51A1.52,1.52,0,0,1,170.16,151.76Z" style="fill: #fff"/>
                </g>
              </g>
              <rect x="126.79" y="140.18" width="11.64" height="3.26" style="fill: #4a2f16"/>
              <rect x="164.05" y="140.18" width="11.64" height="3.26" style="fill: #4a2f16"/>
            </g>
          </g>
        </g>
        <path d="M169.52,211.21c-.7,0-1.11,0-1.2,0a6,6,0,0,1,.84-12c1.56.09,35.46,1.25,42.14-56.2a6,6,0,1,1,11.92,1.38c-4.14,35.63-18.46,51.9-29.74,59.27A45.09,45.09,0,0,1,169.52,211.21Z" style="fill: #efc698"/>
        <path d="M169.53,211.21c-.69,0-1.11,0-1.21,0a6,6,0,0,1,.83-12c.58,0,11.84.51,22.7-9.43a6,6,0,0,1,8.1,8.85C187.23,210.26,173.63,211.21,169.53,211.21Z" style="fill: #f8d62a"/>
      </g>
    </g>
  </g>
</svg>
